<?xml version="1.0" standalone="no"?>
<!DOCTYPE svg PUBLIC "-//W3C//DTD SVG 20010904//EN"
 "http://www.w3.org/TR/2001/REC-SVG-20010904/DTD/svg10.dtd">
<svg version="1.0" xmlns="http://www.w3.org/2000/svg"
 width="94.000000pt" height="94.000000pt" viewBox="0 0 94.000000 94.000000"
 preserveAspectRatio="xMidYMid meet">
<metadata>
Created by potrace 1.14, written by Peter Selinger 2001-2017
</metadata>
<g transform="translate(0.000000,94.000000) scale(0.100000,-0.100000)"
fill="#000000" stroke="none">
<path d="M671 929 c-187 -36 -421 -169 -532 -301 -45 -53 -114 -158 -104 -158
14 0 101 50 213 122 156 101 188 114 355 143 l39 6 -30 -43 c-40 -57 -105
-112 -205 -173 -45 -28 -92 -65 -104 -83 -24 -37 -58 -130 -49 -139 3 -3 104
-7 225 -8 272 -4 276 -5 277 -90 1 -67 13 -102 51 -158 29 -42 33 -41 55 23
43 123 47 240 14 405 -3 11 -5 28 -5 37 -1 16 -11 13 -70 -17 -39 -20 -83 -35
-102 -35 -37 1 -107 15 -116 24 -20 20 62 117 149 178 33 23 66 54 74 69 18
36 18 92 -1 157 -15 51 -17 52 -53 51 -20 -1 -57 -5 -81 -10z"/>
</g>
</svg>
