<?xml version="1.0" encoding="UTF-8"?>
<!DOCTYPE svg PUBLIC "-//W3C//DTD SVG 1.1//EN" "http://www.w3.org/Graphics/SVG/1.1/DTD/svg11.dtd">
<!-- Creator: CorelDRAW X8 -->
<svg xmlns="http://www.w3.org/2000/svg" xml:space="preserve" width="82mm" height="20mm" version="1.1" style="shape-rendering:geometricPrecision; text-rendering:geometricPrecision; image-rendering:optimizeQuality; fill-rule:evenodd; clip-rule:evenodd"
viewBox="0 0 8200 2000"
 xmlns:xlink="http://www.w3.org/1999/xlink">
 <defs>
  <style type="text/css">
   <![CDATA[
    .fil0 {fill:#FEFEFE}
   ]]>
  </style>
   <clipPath id="id0">
    <rect x="21" width="8158" height="2000"/>
   </clipPath>
 </defs>
 <g id="Layer_x0020_1">
  <metadata id="CorelCorpID_0Corel-Layer"/>
  <g style="clip-path:url(#id0)">
   <image x="21" y="0" width="8158" height="2000" xlink:href="7420-trigonometri-dasar-384e48ed-ce9c-40b5-865d-d0927fabcbd8_Images\7420-trigonometri-dasar-384e48ed-ce9c-40b5-865d-d0927fabcbd8_ImgID1.png"/>
  </g>
  <g id="_1914096071888">
   <path class="fil0" d="M6309 712c-6,-30 4,-48 36,-54 20,34 1,63 -36,54zm2 -85c-14,16 -40,35 -43,62 -7,73 86,82 111,33 10,-19 6,-24 7,-45 3,-33 9,-12 12,-39 -13,-14 -8,-11 -28,-19 -63,-26 -9,-15 -115,-39 1,-21 8,-38 16,-55 11,-20 16,-22 37,-30 1,2 4,5 4,6 1,1 2,3 2,4 20,28 -3,17 28,21l7 -43c-21,-13 -38,-32 -70,-12 -16,9 -36,36 -45,56 -36,85 7,86 77,100z"/>
   <path class="fil0" d="M6480 1445l-21 69c-9,19 -2,8 -14,17 -14,-23 -7,-46 -3,-75l38 -11zm-127 -4c-7,-26 -4,-45 -13,-76 -18,-57 -10,-49 -29,-54 -10,16 11,93 11,129l-41 3 6 31c42,-7 -6,-9 35,-13 -1,45 -13,102 2,138 29,-15 26,-102 26,-139l63 -4c-6,48 -9,71 13,102 50,10 49,-18 63,-58 17,26 11,52 44,49 1,-22 -21,-90 -42,-104l-10 -5c8,-19 7,-14 1,-33l-44 -2c-11,13 -14,23 -23,36l-62 0z"/>
   <path class="fil0" d="M7441 1565c-26,-29 -41,-95 -13,-135 16,23 30,26 30,70 0,33 -2,45 -17,65zm87 -115c-12,-58 -17,-69 -48,-64 4,28 11,15 20,47 9,32 7,26 -12,38 -28,-28 -9,-66 -76,-67 -20,34 -29,59 -22,113 6,44 18,71 58,75 39,-8 34,-87 56,-104 13,14 12,31 16,58 1,8 2,23 4,30 7,26 4,15 14,22 6,-6 10,-6 10,-29l-12 -91c38,-33 28,8 43,-39l-51 11z"/>
   <path class="fil0" d="M7258 644c1,-26 9,-62 22,-78l25 30c-17,13 -17,35 -47,48zm67 -80c-17,-13 -21,-28 -51,-33 -33,19 -54,114 -33,150 41,6 63,-36 84,-56l33 47c14,20 19,33 47,38 -3,-30 -46,-104 -60,-114 14,-21 60,-89 36,-114 -33,9 -25,51 -56,82z"/>
   <path class="fil0" d="M7738 1601c-16,-38 -24,-78 -1,-115 14,8 25,16 36,25 -1,31 -17,73 -35,90zm144 19c-5,-52 -50,-71 -68,-105 -16,-31 35,-107 3,-135 -21,8 -16,21 -21,48 -3,18 -8,40 -13,54 -105,-78 -87,98 -56,158 53,3 43,-51 74,-96 23,27 41,68 81,76z"/>
   <path class="fil0" d="M6423 1042c22,24 21,47 18,85 -1,-1 -3,-4 -4,-3 0,1 -2,-3 -3,-3l-15 -31c-3,-16 -1,-35 4,-48zm75 61l13 20c-9,1 2,6 -17,-3l-20 -8c-6,-52 -16,-105 -65,-112 -5,16 -31,50 -18,101 10,36 29,59 67,58l14 -29c22,28 48,33 88,21 6,-59 -58,-21 -40,-126 5,-28 -26,-36 -34,0 -7,28 -2,58 12,78z"/>
   <path class="fil0" d="M6737 560c-31,-25 -57,-25 -90,-4 2,24 -1,17 11,30 41,-2 -5,-12 30,-19 12,-2 24,11 30,16 -16,25 -28,34 -23,77 4,31 21,61 49,52 7,-26 -39,-58 -7,-95 28,29 17,68 61,81 7,-40 -29,-76 -38,-113 63,-73 79,-14 105,-10 9,-26 -20,-57 -50,-56 -24,0 -60,31 -78,41z"/>
   <path class="fil0" d="M6482 734c65,-3 3,-95 59,-140 14,29 11,90 18,146l24 0c19,-49 5,-152 -31,-180 -36,-1 -36,18 -57,39 -22,-58 -41,-51 -28,17 8,39 4,83 15,118z"/>
   <path class="fil0" d="M7563 1043c-1,-8 -3,-14 -1,-23 5,-34 5,-14 12,-23 12,42 -2,17 -11,46zm38 -57c-29,-19 -21,-36 -55,-32 -3,19 -7,49 -8,70l2 65c12,31 45,-26 59,-41 25,23 16,44 59,51 -5,-37 -27,-57 -40,-86 21,-30 7,-25 36,-52 13,-13 10,3 12,-21 -41,-32 -55,22 -65,46z"/>
   <path class="fil0" d="M6376 1125c-149,47 -92,-124 -31,-170 29,6 13,17 36,4 -1,-14 -15,-29 -27,-32 -47,-11 -157,151 -73,222 29,25 89,25 95,-24z"/>
   <path class="fil0" d="M7316 1082c-10,-6 -17,-15 -18,-32 -3,-39 2,-2 14,-32 0,-16 -30,-50 -43,-16 -6,15 2,67 8,81 21,53 73,33 77,-37 2,-53 -48,-123 -63,-91 -6,12 53,40 25,127z"/>
   <path class="fil0" d="M6635 1035c-7,28 -39,47 -14,70 15,-5 27,-27 36,-40 12,18 34,44 60,49 -7,-43 -47,-58 -33,-81 21,-28 23,8 43,-26 -22,-33 -52,-3 -69,8 -9,-7 -4,-3 -13,-11 -27,-24 -17,-26 -40,-22 -8,27 12,39 30,53z"/>
   <path class="fil0" d="M7247 1108c-16,-7 -36,-2 -59,-14 -11,-47 0,-91 12,-133 21,-1 48,8 49,-9 0,-13 -25,-20 -42,-20 -58,2 -65,146 -41,178 15,19 41,25 63,15 23,-11 11,-3 18,-17z"/>
   <path class="fil0" d="M6600 1493c-6,-12 -14,-28 -22,-42 -11,-20 -10,-25 -32,-28l-11 10c3,37 -6,0 17,28 27,35 23,69 50,81 28,-15 13,-52 39,-82 25,21 21,45 52,56 2,-26 -9,-42 -19,-59 -15,-25 -14,-30 -46,-30 -11,15 -24,41 -28,66z"/>
   <path class="fil0" d="M6840 1397c-6,9 -16,26 -25,34 -9,-10 -22,-33 -33,-38 -25,-10 -8,21 -2,30 45,71 -15,54 10,111 29,-7 19,-17 31,-44 12,12 16,24 36,25 0,-22 -13,-36 -22,-54 8,-16 13,-20 19,-34 15,29 -9,20 26,24l-1 -49 -39 -5z"/>
   <path class="fil0" d="M7316 1412l17 -4 3 -14 -16 -6c-82,22 -83,184 5,180 31,-2 48,-20 50,-51 -27,5 -28,24 -61,25 -50,-28 -40,-110 2,-130z"/>
   <path class="fil0" d="M6436 723l21 -2c13,-33 8,-132 -17,-153 -31,8 -19,31 -17,70 1,32 2,62 13,85z"/>
   <path class="fil0" d="M7406 1060c-9,3 -16,6 -23,11 -15,10 -13,5 -18,20 25,12 58,-8 77,-22 0,-36 -9,-19 -22,-45 -13,-26 1,-34 -12,-54 -51,-3 -11,65 -2,90z"/>
   <path class="fil0" d="M6931 972l0 26c22,6 53,-3 61,-24 -11,-7 -45,-10 -61,-2z"/>
   <path class="fil0" d="M7046 1483c-16,-19 -45,-20 -68,-12 3,22 3,21 27,23 49,3 37,-6 41,-11z"/>
   <path class="fil0" d="M7037 1444c-8,-3 -74,-25 -64,4 3,10 21,13 33,14 23,1 25,-4 31,-18z"/>
   <path class="fil0" d="M7003 650c6,4 1,5 14,6 2,0 17,-3 19,-4 20,-7 17,-7 22,-29 -14,0 -27,-1 -41,4 -17,6 -17,5 -14,23z"/>
   <path class="fil0" d="M6451 505c3,-5 18,11 -5,-31 -9,-15 -3,-17 -26,-18 -15,21 6,55 31,49z"/>
   <path class="fil0" d="M6949 1052c18,1 64,-16 51,-28 -6,-7 -26,-6 -37,-3 -23,6 -16,8 -14,31z"/>
   <path class="fil0" d="M6992 600c40,11 44,-2 47,-20 -16,-5 -23,-8 -43,-2l-4 22z"/>
   <path class="fil0" d="M7336 1394l-3 14 -17 4c0,17 14,1 17,-4 21,2 3,-13 3,-14 -7,-7 11,-5 -16,-6l16 6z"/>
   <path class="fil0" d="M6494 1120c19,9 8,4 17,3l-13 -20 4 10c-1,14 3,-1 -8,7z"/>
  </g>
 </g>
</svg>
