<?xml version="1.0" encoding="UTF-8"?>
<!DOCTYPE svg PUBLIC "-//W3C//DTD SVG 1.1//EN" "http://www.w3.org/Graphics/SVG/1.1/DTD/svg11.dtd">
<!-- Creator: CorelDRAW X8 -->
<svg xmlns="http://www.w3.org/2000/svg" xml:space="preserve" width="30mm" height="30mm" version="1.1" style="shape-rendering:geometricPrecision; text-rendering:geometricPrecision; image-rendering:optimizeQuality; fill-rule:evenodd; clip-rule:evenodd"
viewBox="0 0 3000 3000"
 xmlns:xlink="http://www.w3.org/1999/xlink">
 <defs>
  <style type="text/css">
   <![CDATA[
    .fil1 {fill:#340595;fill-rule:nonzero}
    .fil4 {fill:#90BD6D;fill-rule:nonzero}
    .fil0 {fill:#F9C64F;fill-rule:nonzero}
    .fil5 {fill:#90BD6D;fill-rule:nonzero;fill-opacity:0.400000}
    .fil3 {fill:#F9C64F;fill-rule:nonzero;fill-opacity:0.400000}
    .fil2 {fill:white;fill-rule:nonzero;fill-opacity:0.501961}
   ]]>
  </style>
 </defs>
 <g id="Layer_x0020_1">
  <metadata id="CorelCorpID_0Corel-Layer"/>
  <g id="_1791100367504">
   <g>
    <path class="fil0" d="M417 2769c-58,0 -114,-22 -167,-65 -200,-190 -21,-395 109,-546 27,-31 53,-61 74,-89 141,-185 267,-373 377,-560 -78,-187 -173,-404 -288,-608 -20,-36 -46,-74 -74,-115 -111,-160 -249,-360 -55,-528 51,-38 103,-56 155,-56 177,0 362,206 580,648 49,-123 86,-231 119,-327 99,-292 154,-453 336,-453 29,0 60,4 95,13 84,27 142,73 173,137 66,138 -2,326 -58,478 -6,17 -12,33 -17,49 -94,266 -211,530 -348,785l25 59c67,164 131,319 192,453 12,28 27,57 42,87 91,179 203,401 -31,540 -48,24 -93,36 -135,36 0,0 0,0 0,0 -180,0 -279,-205 -351,-354l-5 -10c-37,-78 -72,-155 -100,-220 -57,81 -107,150 -156,213 -16,22 -34,46 -53,73 -110,152 -260,360 -439,360z"/>
    <path class="fil1" d="M1583 96c27,0 56,4 89,12 300,98 153,424 80,631 -97,272 -215,537 -352,792 78,188 152,370 222,523 85,189 272,446 21,595 -45,23 -85,32 -122,32 -168,0 -261,-200 -333,-349 -42,-86 -80,-173 -118,-261 -58,85 -118,168 -181,250 -105,137 -275,423 -472,423 -49,0 -100,-18 -151,-60 -218,-207 63,-436 188,-600 156,-205 281,-397 384,-573 -88,-212 -181,-422 -294,-623 -101,-180 -356,-419 -134,-611 46,-34 92,-50 138,-50 201,0 398,302 583,686 213,-526 226,-817 452,-817zm0 -51l0 0c-200,0 -260,176 -360,469 -29,82 -59,173 -98,273 -214,-421 -394,-611 -577,-611 -58,0 -114,20 -168,60 -1,1 -2,2 -3,3 -211,183 -60,402 50,562 28,40 54,78 73,112 112,200 205,411 281,594 -107,182 -231,366 -368,547 -20,27 -46,56 -73,88 -129,149 -325,374 -109,579 1,1 2,1 3,2 58,48 119,71 183,71 192,0 347,-214 459,-370 20,-26 37,-51 53,-72 42,-54 84,-112 131,-177 24,55 52,117 82,179l5 10c75,155 178,368 374,368 46,0 95,-12 145,-37 1,-1 2,-1 3,-2 254,-152 131,-395 41,-573 -15,-31 -30,-59 -42,-87 -60,-133 -124,-288 -192,-451l-20 -49c135,-253 250,-514 343,-777 6,-16 12,-33 18,-50 57,-156 128,-350 56,-497 -34,-70 -96,-120 -185,-150 -1,0 -2,0 -4,-1 -37,-9 -70,-13 -101,-13z"/>
   </g>
   <path class="fil2" d="M1539 2500c-14,-55 -20,-108 -41,-162 -22,-53 -50,-102 -76,-153 -53,-101 -106,-202 -159,-303 -107,-207 -210,-415 -316,-622 -103,-203 -213,-402 -318,-604 -26,-50 -54,-99 -77,-150 -22,-48 -20,-78 31,-99 105,-44 180,70 228,145 5,7 15,1 11,-6 -51,-115 -140,-267 -291,-220 -199,62 -51,307 -4,425 160,402 345,789 542,1174 55,108 111,217 169,325 29,54 56,109 90,160 35,55 82,93 125,140 35,40 99,-2 86,-50z"/>
   <path class="fil2" d="M836 1677c-122,131 -237,266 -350,405 -53,65 -110,129 -149,204 -32,61 -81,171 -34,236 8,25 20,42 44,59 16,12 38,5 52,-6 14,-13 22,-27 29,-42 25,-25 34,-61 46,-93 12,-30 22,-59 36,-88 36,-70 72,-140 110,-209 82,-149 159,-300 230,-455 4,-9 -7,-19 -14,-11z"/>
   <path class="fil2" d="M1683 126c-96,-71 -214,52 -257,128 -54,96 -95,200 -132,303 -76,206 -140,420 -186,635 -2,7 8,12 12,5 97,-173 191,-348 287,-521 48,-86 96,-171 140,-259 20,-39 39,-82 70,-113 31,-30 68,-41 93,-77 24,-36 4,-79 -27,-101z"/>
   <path class="fil3" d="M933 2029c-2,-26 -30,-38 -51,-21 -87,73 -131,185 -185,283 -27,48 -60,93 -92,138 -33,47 -65,97 -102,141 -4,5 1,14 8,10 45,-28 90,-54 131,-89 43,-36 81,-76 119,-117 38,-42 74,-84 105,-131 28,-42 61,-97 62,-150 3,-21 7,-41 5,-64z"/>
   <path class="fil3" d="M1741 559c-12,-34 -50,-54 -83,-34 -38,23 -46,61 -64,99 -16,36 -30,72 -44,109 -27,74 -54,147 -83,219 -28,73 -55,146 -83,218 -14,36 -25,73 -37,110 -8,25 -23,54 -9,79 1,3 5,5 8,5 27,-3 40,-25 56,-46 23,-31 46,-63 66,-97 42,-69 82,-139 117,-211 34,-72 67,-144 97,-218 15,-36 31,-72 41,-110 11,-40 33,-82 18,-123z"/>
   <path class="fil3" d="M1656 2211c-28,-84 -61,-167 -94,-250 -66,-166 -136,-331 -212,-493 -151,-326 -327,-655 -542,-944 -3,-4 -8,-1 -6,3 156,328 321,649 462,984 70,166 134,333 192,503 29,84 56,169 84,253 26,80 47,170 99,237 27,35 77,3 80,-32 6,-87 -35,-180 -63,-261z"/>
   <path class="fil1" d="M2101 139c-7,-17 -39,-9 -36,10 12,102 24,200 10,304 -14,103 -43,204 -90,297 -5,11 9,18 16,9 67,-88 113,-190 129,-300 15,-105 13,-221 -29,-320z"/>
   <path class="fil1" d="M2301 304c-3,-43 -7,-87 -27,-126 -5,-11 -22,-6 -22,6 0,43 10,86 12,129 2,40 2,81 -2,121 -7,85 -26,170 -58,249 -3,7 8,11 12,5 43,-79 72,-160 82,-249 5,-45 7,-90 3,-135z"/>
  </g>
  <g id="_1791100365936">
   <g>
    <path class="fil4" d="M2348 2244c-58,0 -120,-18 -182,-54l-3 -2c-33,-19 -79,-46 -90,-86 -5,-18 -2,-37 9,-56 17,-24 37,-35 62,-35 22,0 44,9 66,17 21,7 43,15 62,15 8,0 15,-1 22,-4 24,-11 43,-44 59,-71l8 -14c33,-57 63,-135 88,-232 -4,0 -9,1 -14,1 -219,0 -374,-216 -404,-564 -7,-77 -7,-163 39,-215 24,-27 59,-42 104,-44 132,5 141,100 152,221 8,79 17,178 63,279 25,53 54,104 102,117 21,-128 35,-259 46,-365l6 -60c9,-89 35,-206 156,-206 7,0 14,0 21,1 154,28 131,186 114,301 -3,20 -6,38 -8,55 -24,238 -51,453 -125,659 -101,282 -247,342 -353,342 0,0 0,0 0,0z"/>
    <path class="fil1" d="M2699 899c6,0 13,0 19,1 165,30 107,227 95,341 -22,221 -49,447 -124,656 -84,237 -209,334 -341,334 -58,0 -117,-19 -175,-52 -45,-26 -115,-65 -79,-127 14,-20 31,-28 50,-28 39,0 86,32 128,32 9,0 18,-1 27,-5 33,-14 55,-60 73,-90 40,-68 70,-156 94,-253 -10,1 -21,1 -31,1 -233,0 -364,-241 -391,-551 -9,-105 -8,-240 131,-245 201,8 86,239 202,492 24,52 58,115 119,126 2,1 4,1 6,1 26,-157 41,-318 54,-439 11,-108 43,-194 143,-194zm0 -26l0 0c-131,0 -159,124 -169,217 -2,20 -4,40 -6,61 -11,101 -24,226 -43,348 -35,-17 -59,-60 -80,-105 -45,-98 -54,-192 -62,-275 -11,-121 -21,-227 -163,-232 0,0 -1,0 -1,0 0,0 -1,0 -1,0 -49,2 -87,18 -114,49 -50,55 -49,145 -42,224 30,354 189,574 414,576 -24,88 -51,159 -83,212 -2,4 -5,9 -8,13 -13,24 -32,57 -52,66 -5,2 -11,3 -17,3 -17,0 -37,-7 -57,-15 -23,-8 -47,-17 -71,-17 -30,0 -54,13 -72,40 0,0 -1,1 -1,1 -13,23 -16,45 -11,67 12,45 61,73 97,94l3 1c64,37 127,56 188,56 110,0 262,-61 366,-351 74,-207 101,-431 125,-662 2,-16 5,-34 8,-54 16,-113 42,-285 -124,-316 -1,0 -1,0 -2,0 -7,-1 -15,-1 -22,-1z"/>
   </g>
   <path class="fil2" d="M2367 1622c-7,-23 -28,-44 -43,-63 -17,-23 -35,-45 -49,-70 -31,-53 -50,-112 -67,-171 -18,-64 -33,-130 -43,-196 -5,-34 -10,-67 -11,-102 -1,-30 1,-58 -6,-87 -1,-3 -4,-4 -7,-2 -59,30 -72,120 -74,180 -3,80 15,165 36,242 20,69 44,139 81,201 18,30 39,59 68,79 25,19 60,37 92,30 17,-4 29,-24 23,-41z"/>
   <path class="fil2" d="M2679 954c-8,-38 -59,-31 -70,0 -12,30 -10,66 -12,97 -2,29 -4,59 -6,88 -4,59 -7,118 -13,177 -11,119 -39,235 -76,349 -17,55 -36,109 -56,162 -18,51 -34,102 -62,149 -25,41 -61,67 -109,78 -22,5 -44,8 -66,6 -24,-2 -46,-10 -69,-12 -5,0 -7,5 -5,8 35,63 138,68 198,47 86,-31 133,-105 166,-186 78,-189 141,-390 160,-595 6,-61 10,-122 14,-183 2,-32 4,-63 6,-94 2,-30 7,-61 0,-91z"/>
   <path class="fil5" d="M2398 1442c-1,-18 -9,-32 -17,-51 -9,-19 -18,-38 -27,-57 -17,-35 -33,-72 -46,-109 -14,-39 -28,-78 -38,-118 -9,-37 -15,-75 -32,-110 -3,-5 -11,-5 -13,0 -18,37 -20,79 -19,119 1,44 4,90 13,133 9,45 22,89 40,131 15,35 33,84 67,105 13,13 24,24 45,24 10,0 23,-6 27,-16 9,-20 6,-33 0,-51z"/>
   <path class="fil5" d="M2798 967c-11,-21 -41,-18 -52,0 -35,55 -29,124 -34,187 -4,61 -10,122 -18,183 -18,125 -44,250 -77,372 -16,60 -34,119 -53,177 -17,53 -34,108 -60,158 -25,45 -59,78 -109,93 -57,16 -128,10 -186,-1 -9,-1 -12,10 -3,14 47,19 89,40 140,48 46,6 93,1 134,-22 77,-43 115,-131 144,-210 76,-206 128,-419 162,-636 9,-60 17,-121 24,-182 7,-62 17,-124 -12,-181z"/>
   <path class="fil1" d="M1992 1474c-24,-37 -45,-79 -58,-121 -7,-21 -11,-42 -15,-63 -4,-23 -4,-46 -7,-69 -1,-8 -13,-11 -15,-2 -7,45 3,96 18,139 15,46 38,86 69,122 4,4 11,-2 8,-6z"/>
   <path class="fil1" d="M1899 1474c-22,-25 -39,-55 -50,-85 -12,-30 -18,-64 -19,-96 0,-10 -14,-9 -15,0 -3,37 2,70 16,104 14,32 35,59 62,83 4,3 10,-2 6,-6z"/>
  </g>
 </g>
</svg>
