<?xml version="1.0" encoding="UTF-8"?>
<!DOCTYPE svg PUBLIC "-//W3C//DTD SVG 1.1//EN" "http://www.w3.org/Graphics/SVG/1.1/DTD/svg11.dtd">
<!-- Creator: CorelDRAW X8 -->
<svg xmlns="http://www.w3.org/2000/svg" xml:space="preserve" width="210mm" height="297mm" version="1.1" style="shape-rendering:geometricPrecision; text-rendering:geometricPrecision; image-rendering:optimizeQuality; fill-rule:evenodd; clip-rule:evenodd"
viewBox="0 0 21000 29700"
 xmlns:xlink="http://www.w3.org/1999/xlink">
 <defs>
  <style type="text/css">
   <![CDATA[
    .fil1 {fill:#340595;fill-rule:nonzero}
    .fil0 {fill:#4D908E;fill-rule:nonzero}
    .fil3 {fill:#4D908E;fill-rule:nonzero;fill-opacity:0.200000}
    .fil2 {fill:white;fill-rule:nonzero;fill-opacity:0.501961}
   ]]>
  </style>
 </defs>
 <g id="Layer_x0020_1">
  <metadata id="CorelCorpID_0Corel-Layer"/>
  <path class="fil0" d="M3705 6898c-214,0 -380,-136 -444,-363 -22,-76 -4,-124 53,-141 9,-2 17,-3 25,-3 55,0 75,48 92,87 6,14 12,28 19,39 26,41 62,62 106,62 21,0 44,-5 67,-15 307,-136 193,-605 73,-1101 -108,-446 -220,-907 -57,-1204 85,-157 289,-275 473,-275 151,0 264,76 319,215 32,83 45,254 -9,334 -18,26 -43,40 -71,40 -9,0 -18,-1 -28,-4 -79,-30 -60,-104 -45,-164 18,-70 21,-100 -23,-112 -4,-1 -9,-1 -14,-1 -37,0 -83,30 -114,58 -172,156 -43,686 60,1111 45,187 88,363 103,492 18,160 31,367 -32,543 -86,237 -313,402 -553,402 0,0 0,0 0,0z"/>
  <path class="fil1" d="M4112 4002c127,0 245,58 302,204 43,109 42,349 -63,349 -7,0 -15,-1 -23,-3 -126,-48 62,-242 -69,-276 -5,-1 -12,-2 -18,-2 -45,0 -97,37 -126,63 -255,232 108,1187 158,1618 19,172 28,369 -32,535 -87,242 -318,390 -536,390 -184,0 -358,-105 -427,-349 -14,-49 -17,-102 41,-120 7,-2 14,-3 20,-3 60,0 68,75 96,119 30,47 74,70 121,70 24,0 49,-6 74,-17 598,-264 -319,-1684 24,-2313 83,-151 280,-266 458,-265zm0 -36l0 0c-190,0 -400,122 -489,284 -166,304 -53,768 56,1217 118,489 230,951 -63,1081 -21,9 -41,13 -60,13 -38,0 -69,-18 -91,-53 -6,-10 -12,-23 -18,-37 -17,-41 -42,-98 -108,-98 -9,0 -18,1 -28,3 -1,0 -2,1 -3,1 -38,12 -97,49 -64,163 66,235 239,376 461,376 247,0 481,-170 569,-414 65,-180 52,-389 34,-551 -15,-130 -58,-307 -104,-494 -102,-421 -230,-945 -66,-1094 28,-24 71,-54 103,-54 4,0 7,1 10,2 23,6 30,12 10,90 -15,59 -38,149 55,184 0,0 1,1 2,1 11,3 23,5 33,5 24,0 58,-9 85,-48 58,-85 45,-264 11,-350 -58,-146 -177,-227 -335,-227z"/>
  <path class="fil2" d="M4398 4166c-46,-109 -152,-171 -266,-183 -118,-12 -233,34 -320,113 -92,84 -141,200 -166,321 -123,605 146,1184 186,1781 9,135 11,316 -118,401 -55,37 -130,44 -191,16 -59,-27 -99,-86 -134,-138 -21,-30 -68,-19 -70,19 -6,118 96,212 204,241 119,32 249,-10 327,-105 86,-103 108,-237 104,-368 -3,-146 -25,-292 -51,-436 -52,-288 -130,-573 -158,-865 -14,-146 -18,-296 0,-442 16,-121 47,-248 138,-337 92,-89 221,-117 340,-66 130,56 187,190 145,324 -1,3 4,6 6,3 61,-78 61,-190 24,-279z"/>
  <path class="fil3" d="M4260 4186c-87,-44 -183,-2 -246,63 -157,162 -162,420 -137,630 14,120 41,237 66,355 27,124 47,251 63,377 16,132 27,264 33,397 4,117 8,237 -17,352 -24,109 -73,215 -167,281 -86,61 -182,63 -283,74 -38,3 -59,46 -31,76 141,155 397,12 503,-119 144,-178 158,-419 148,-639 -12,-248 -45,-499 -108,-740 -58,-218 -134,-445 -119,-674 8,-113 41,-247 129,-326 37,-33 88,-53 137,-39 57,16 94,63 92,123 0,6 8,7 12,3 51,-69 -10,-160 -75,-194z"/>
  <path class="fil1" d="M3631 4087c-63,15 -119,61 -155,113 -37,54 -58,120 -50,185 0,6 8,6 9,0 6,-61 27,-120 63,-170 17,-23 38,-45 61,-64 24,-20 51,-34 79,-48 9,-5 2,-18 -7,-16z"/>
  <path class="fil1" d="M3556 4034c-70,18 -131,56 -176,111 -45,55 -72,119 -77,190 0,4 5,4 6,1 13,-64 46,-126 89,-175 44,-49 99,-90 162,-112 9,-3 5,-17 -4,-15z"/>
 </g>
</svg>
