<?xml version="1.0" encoding="UTF-8"?>
<!DOCTYPE svg PUBLIC "-//W3C//DTD SVG 1.1//EN" "http://www.w3.org/Graphics/SVG/1.1/DTD/svg11.dtd">
<!-- Creator: CorelDRAW X8 -->
<svg xmlns="http://www.w3.org/2000/svg" xml:space="preserve" width="50mm" height="50mm" version="1.1" style="shape-rendering:geometricPrecision; text-rendering:geometricPrecision; image-rendering:optimizeQuality; fill-rule:evenodd; clip-rule:evenodd"
viewBox="0 0 5000 5000"
 xmlns:xlink="http://www.w3.org/1999/xlink">
 <defs>
  <style type="text/css">
   <![CDATA[
    .fil1 {fill:#3AA28B}
    .fil0 {fill:#4F1306}
    .fil3 {fill:#76C1B3}
    .fil2 {fill:#F2AA47}
    .fil4 {fill:#FEC619}
   ]]>
  </style>
 </defs>
 <g id="Layer_x0020_1">
  <metadata id="CorelCorpID_0Corel-Layer"/>
  <g id="_1668191557408">
   <path class="fil0" d="M3188 3708l-11 143c-67,43 -25,18 -97,79 -478,409 -858,-181 -540,-373 16,-191 62,-281 247,-360 -30,-405 -321,-173 -263,-712l23 3c257,-299 439,-162 646,44 310,-247 487,-663 813,-417 70,70 92,38 121,218 31,198 -8,183 -74,282 -101,151 -237,246 -297,444 213,148 409,245 468,352 170,308 -101,791 -558,439 -130,-100 -204,-154 -306,-240l-172 98zm-11 143l181 -118c213,126 386,359 774,297 463,-498 167,-701 -228,-966 81,-492 637,-504 78,-1083 -437,-39 -557,193 -716,407 -280,-38 -465,-307 -729,-3 -278,321 26,514 115,712 -110,278 -460,526 -225,879 176,266 659,277 750,-125z"/>
   <path class="fil1" d="M1232 3311c32,241 195,564 283,799 102,275 169,545 247,797 338,41 328,17 366,-322 -386,-123 -530,-867 -589,-1344l-307 70z"/>
   <path class="fil2" d="M3188 3708l-205 127c-291,259 -381,73 -443,-278 131,-41 59,87 195,-154 62,-112 42,-59 52,-206l54 -103c22,-63 12,-65 10,-161 -296,-222 -125,-126 -327,-448 -58,539 233,307 263,712 -185,79 -231,169 -247,360 -318,192 62,782 540,373 72,-61 30,-36 97,-79l11 -143 172 -98c102,86 176,140 306,240 457,352 728,-131 558,-439 -59,-107 -255,-204 -468,-352 60,-198 196,-293 297,-444 66,-99 105,-84 74,-282 -29,-180 -51,-148 -121,-218 -326,-246 -503,170 -813,417 -207,-206 -389,-343 -646,-44 222,82 122,-90 363,-58 152,21 83,76 283,160 260,3 280,-602 804,-412 152,508 -191,470 -279,863 169,317 676,291 337,798 -462,56 -227,-327 -827,-311 -87,142 -30,53 -40,180z"/>
   <path class="fil3" d="M1074 1143c-62,692 163,970 326,1564 -9,8 -28,4 -33,19l-102 58c-169,127 -47,-41 -145,172 70,178 74,187 112,355l307 -70c59,477 203,1221 589,1344 -38,-583 -243,-999 -344,-1546l-97 -366 -8 -194 400 -91c104,-83 76,-29 109,-191l-23 -196c-54,-111 -84,-121 -274,-106l-240 61c-80,-391 98,-945 218,-1225 758,106 131,858 873,736 707,-1005 -1458,-2432 -1668,-324z"/>
   <path class="fil4" d="M2547 2488l-23 -3c202,322 31,226 327,448 2,96 12,98 -10,161l-54 103c-10,147 10,94 -52,206 -136,241 -64,113 -195,154 62,351 152,537 443,278l205 -127c10,-127 -47,-38 40,-180 600,-16 365,367 827,311 339,-507 -168,-481 -337,-798 88,-393 431,-355 279,-863 -524,-190 -544,415 -804,412 -200,-84 -131,-139 -283,-160 -241,-32 -141,140 -363,58z"/>
   <path class="fil1" d="M1242 3309l297 -68c5,-15 -148,-526 -139,-534 -163,-594 -388,-872 -326,-1564 -127,239 -102,643 -111,958 -300,78 -305,32 -349,313l399 73c31,134 175,832 229,822z"/>
  </g>
 </g>
</svg>
