<?xml version="1.0" encoding="UTF-8"?>
<!DOCTYPE svg PUBLIC "-//W3C//DTD SVG 1.1//EN" "http://www.w3.org/Graphics/SVG/1.1/DTD/svg11.dtd">
<!-- Creator: CorelDRAW X8 -->
<svg xmlns="http://www.w3.org/2000/svg" xml:space="preserve" width="30mm" height="30mm" version="1.1" style="shape-rendering:geometricPrecision; text-rendering:geometricPrecision; image-rendering:optimizeQuality; fill-rule:evenodd; clip-rule:evenodd"
viewBox="0 0 3000 3000"
 xmlns:xlink="http://www.w3.org/1999/xlink">
 <defs>
  <style type="text/css">
   <![CDATA[
    .fil1 {fill:#340595;fill-rule:nonzero}
    .fil0 {fill:#F2722B;fill-rule:nonzero}
    .fil3 {fill:#F2722B;fill-rule:nonzero;fill-opacity:0.400000}
    .fil2 {fill:white;fill-rule:nonzero;fill-opacity:0.501961}
   ]]>
  </style>
 </defs>
 <g id="Layer_x0020_1">
  <metadata id="CorelCorpID_0Corel-Layer"/>
  <g id="_1791087680464">
   <g>
    <path class="fil0" d="M1843 2657c-106,0 -194,-47 -253,-135 -174,-260 -105,-836 185,-1541 5,-12 10,-22 14,-31 1,-2 3,-5 4,-8 -12,-3 -32,-6 -55,-10 -30,-5 -71,-13 -126,-24 -31,103 -62,209 -95,321 -166,573 -338,1164 -638,1298 -63,28 -128,42 -193,42 -240,0 -427,-199 -455,-342 -13,-62 7,-108 53,-127 12,-4 23,-6 32,-6 53,0 80,46 101,83 10,17 20,33 30,43 35,33 69,50 102,50 234,0 430,-775 535,-1191 25,-100 46,-182 63,-238 -96,0 -182,14 -262,42 -119,42 -189,87 -209,136 -17,41 4,84 26,130 29,60 65,134 -27,191 -18,10 -35,14 -52,14 -74,0 -140,-78 -163,-193 -40,-196 46,-482 422,-642 121,-51 248,-76 387,-76 151,0 300,30 445,58 147,30 299,60 455,60 0,0 0,0 0,0 33,0 66,-1 97,-4 152,-13 228,-102 289,-173 44,-51 81,-95 135,-95 25,0 51,10 78,29 34,29 47,69 39,115 -29,169 -318,413 -464,475 -293,829 -403,1279 -335,1374 7,11 17,15 31,15 49,0 131,-56 198,-105 6,-5 13,-10 19,-15 34,-26 73,-56 117,-56 26,0 52,11 75,33 27,28 38,58 34,91 -8,83 -107,157 -173,205l-20 14c-169,128 -319,193 -446,193z"/>
    <path class="fil1" d="M2690 313c19,0 40,8 64,25 145,123 -253,483 -430,552 -401,1131 -416,1432 -285,1432 52,0 128,-48 212,-110 39,-29 79,-67 122,-67 19,0 38,8 59,27 95,103 -87,220 -157,273 -170,128 -315,188 -432,188 -382,0 -458,-639 -45,-1643 37,-89 63,-54 -202,-110 -198,636 -376,1469 -727,1625 -63,28 -125,40 -183,40 -318,0 -529,-367 -393,-423 9,-3 16,-4 23,-4 59,0 78,85 114,119 41,39 81,57 119,57 319,0 543,-1217 631,-1477 -11,0 -22,0 -32,0 -91,0 -182,12 -272,43 -481,170 -29,344 -214,460 -13,7 -26,10 -39,10 -169,0 -309,-543 268,-788 130,-55 255,-75 377,-75 301,0 588,118 901,118 33,0 66,-1 99,-4 268,-23 315,-268 422,-268zm0 -48l0 0c-65,0 -108,50 -153,103 -62,72 -131,153 -273,165 -31,2 -63,4 -95,4 -153,0 -304,-30 -450,-59 -146,-29 -297,-59 -451,-59 -141,0 -271,25 -395,78 -390,165 -479,464 -437,669 26,127 101,212 187,212 21,0 42,-5 62,-15 1,-1 2,-1 3,-2 110,-69 63,-165 35,-223 -23,-49 -37,-80 -24,-110 12,-29 55,-73 194,-122 68,-24 141,-37 221,-40 -15,54 -33,124 -54,207 -96,380 -296,1172 -511,1172 -26,0 -55,-14 -85,-43 -8,-7 -17,-22 -26,-37 -23,-40 -55,-95 -122,-95 -12,0 -25,2 -38,6 -1,0 -2,1 -3,1 -57,24 -83,82 -68,155 30,151 227,361 479,361 68,0 136,-15 203,-44 310,-138 484,-735 652,-1313 30,-104 59,-203 88,-300 44,9 78,15 105,20 8,1 16,3 24,4 -2,4 -3,8 -5,12 -293,712 -362,1297 -184,1563 65,96 159,147 274,147 132,0 287,-67 461,-198 6,-5 12,-9 19,-15 70,-51 175,-127 184,-222 3,-39 -10,-77 -40,-108 0,-1 -1,-2 -2,-3 -28,-26 -59,-39 -92,-39 -53,0 -94,32 -131,61 -7,5 -13,10 -20,15 -33,25 -136,100 -183,100 -8,0 -9,-2 -11,-5 -43,-60 -19,-342 334,-1342 152,-70 439,-310 469,-488 12,-71 -18,-114 -45,-137 -1,-1 -2,-1 -3,-2 -32,-23 -62,-34 -93,-34z"/>
   </g>
   <path class="fil2" d="M2635 369c-139,101 -265,195 -442,214 -205,23 -402,-51 -601,-85 -342,-58 -738,-12 -969,275 -54,68 -97,149 -115,234 -16,76 -27,169 15,238 1,2 3,1 4,-1 19,-73 19,-147 48,-218 32,-80 78,-153 136,-216 121,-133 291,-205 468,-224 189,-20 374,14 557,60 178,46 354,83 538,51 167,-30 355,-116 421,-282 13,-32 -32,-66 -60,-46z"/>
   <path class="fil2" d="M1305 851c-4,-36 -50,-55 -71,-20 -22,37 -50,69 -65,110 -15,42 -23,87 -34,130 -21,80 -44,160 -69,239 -53,167 -106,336 -166,502 -29,82 -68,162 -106,240 -30,64 -62,130 -115,178 -55,49 -123,68 -194,50 -72,-19 -110,-67 -155,-122 -3,-4 -11,0 -10,5 6,126 169,203 279,193 171,-16 259,-191 326,-327 92,-187 185,-373 255,-571 36,-99 65,-200 93,-302 13,-47 26,-94 36,-142 13,-59 3,-105 -4,-163z"/>
   <path class="fil2" d="M1834 1357c42,-126 118,-267 115,-402 -1,-32 -41,-51 -64,-27 -100,107 -139,281 -181,417 -46,153 -81,309 -99,468 -17,150 -15,306 14,454 22,112 56,242 167,297 7,3 14,-5 8,-11 -98,-92 -106,-235 -110,-362 -5,-145 9,-288 38,-430 27,-137 68,-271 112,-404z"/>
   <path class="fil3" d="M1166 719c-17,-11 -39,-12 -59,-14 -21,-2 -44,1 -66,4 -40,7 -80,19 -118,34 -76,31 -144,73 -190,141 -3,4 2,9 6,7 65,-38 132,-77 205,-97 35,-10 70,-16 106,-19 20,-1 40,-2 59,-4 20,-3 39,-2 57,-11 17,-8 14,-32 0,-41z"/>
   <path class="fil3" d="M2634 600c-20,6 -38,19 -57,29 -19,9 -37,25 -54,37 -36,27 -73,53 -111,77 -76,48 -159,86 -243,116 -7,3 -6,14 1,13 92,-12 180,-37 265,-73 43,-18 85,-39 124,-64 20,-12 40,-26 56,-42 9,-8 16,-18 23,-27 9,-10 18,-19 23,-31 8,-18 -5,-41 -27,-35z"/>
   <path class="fil3" d="M1791 846c-11,-5 -23,-4 -35,-5 1,0 -7,-1 -5,-1 -2,0 -4,0 -7,-1 -7,-1 -13,-3 -20,-3 -11,-1 -22,0 -32,-1 -9,-1 -19,-4 -29,-3 -7,-1 -14,-2 -22,-4 -3,-1 -7,0 -9,0 -4,0 -9,-3 -13,-5 -7,-2 -12,7 -7,12 3,2 6,5 10,7 0,1 1,1 2,0l1 3c2,2 3,4 5,6 8,5 15,10 23,14 8,7 19,11 29,15 11,4 23,8 34,10 13,3 27,1 40,0 14,-2 28,-2 39,-10 15,-10 11,-28 -4,-34z"/>
   <path class="fil3" d="M1429 941c-38,71 -52,151 -74,228 -22,80 -46,160 -71,240 -52,163 -110,324 -172,483 -56,141 -102,294 -214,404 -107,106 -279,161 -416,83 -9,-5 -15,7 -8,12 112,83 262,75 381,11 140,-76 227,-219 300,-355 87,-164 147,-348 206,-522 32,-94 61,-188 89,-283 26,-90 61,-185 60,-279 0,-42 -61,-61 -81,-22z"/>
   <path class="fil3" d="M2382 2258c-33,29 -64,61 -101,86 -35,24 -74,45 -114,62 -41,16 -85,27 -127,39 -22,6 -45,11 -67,18 -31,10 -53,24 -72,51 -19,25 1,60 28,68 54,17 108,-16 156,-39 44,-22 85,-47 126,-74 75,-48 159,-114 187,-202 3,-9 -9,-15 -16,-9z"/>
   <path class="fil3" d="M2178 973c-86,79 -118,197 -155,306 -38,112 -72,225 -98,340 -49,212 -87,464 -9,674 3,11 19,9 20,-3 8,-116 7,-230 25,-346 17,-108 40,-214 71,-318 33,-107 71,-211 113,-314 42,-102 98,-202 93,-314 -1,-31 -37,-46 -60,-25z"/>
   <path class="fil1" d="M549 459c-90,19 -168,90 -217,166 -49,75 -74,174 -54,263 1,6 9,4 10,-1 9,-87 34,-166 82,-239 24,-35 52,-65 84,-93 32,-28 70,-47 108,-67 16,-9 4,-33 -13,-29z"/>
   <path class="fil1" d="M418 300c-85,25 -153,75 -206,145 -52,68 -81,152 -78,237 0,7 11,9 12,2 35,-154 138,-292 281,-361 13,-6 4,-27 -9,-23z"/>
  </g>
 </g>
</svg>
