<?xml version="1.0" encoding="UTF-8"?>
<!DOCTYPE svg PUBLIC "-//W3C//DTD SVG 1.1//EN" "http://www.w3.org/Graphics/SVG/1.1/DTD/svg11.dtd">
<!-- Creator: CorelDRAW X8 -->
<svg xmlns="http://www.w3.org/2000/svg" xml:space="preserve" width="30mm" height="30mm" version="1.1" style="shape-rendering:geometricPrecision; text-rendering:geometricPrecision; image-rendering:optimizeQuality; fill-rule:evenodd; clip-rule:evenodd"
viewBox="0 0 3000 3000"
 xmlns:xlink="http://www.w3.org/1999/xlink">
 <defs>
  <style type="text/css">
   <![CDATA[
    .fil1 {fill:#340595;fill-rule:nonzero}
    .fil0 {fill:#4D908E;fill-rule:nonzero}
    .fil3 {fill:#4D908E;fill-rule:nonzero;fill-opacity:0.200000}
    .fil2 {fill:white;fill-rule:nonzero;fill-opacity:0.501961}
   ]]>
  </style>
 </defs>
 <g id="Layer_x0020_1">
  <metadata id="CorelCorpID_0Corel-Layer"/>
  <g id="_1791097583936">
   <g>
    <path class="fil0" d="M1350 2957c-214,0 -380,-136 -444,-363 -22,-76 -4,-123 52,-141 10,-2 18,-3 26,-3 55,0 75,48 92,87 6,14 12,28 19,39 25,41 62,62 106,62 21,0 44,-5 66,-15 307,-135 194,-604 74,-1101 -108,-446 -220,-907 -58,-1204 86,-157 289,-275 474,-275 150,0 264,76 318,215 33,83 46,254 -8,334 -18,26 -43,40 -71,40 -9,0 -18,-1 -28,-4 -79,-30 -60,-104 -45,-164 18,-70 21,-100 -23,-111 -4,-2 -9,-2 -14,-2 -37,0 -83,30 -115,58 -171,156 -43,686 61,1111 45,187 88,363 103,492 18,160 31,367 -33,543 -85,237 -312,402 -552,402 0,0 0,0 0,0z"/>
    <path class="fil1" d="M1757 61c127,0 245,58 302,204 43,109 42,349 -63,349 -7,0 -15,-1 -23,-3 -126,-48 62,-242 -69,-276 -6,-1 -12,-2 -18,-2 -45,0 -97,37 -126,63 -256,232 108,1187 157,1618 20,172 29,369 -31,535 -88,243 -319,390 -536,390 -184,0 -358,-105 -428,-349 -13,-49 -17,-102 42,-120 7,-2 13,-3 20,-3 60,0 68,75 96,119 30,47 73,70 121,70 24,0 49,-6 74,-17 597,-263 -319,-1684 24,-2313 83,-151 280,-265 458,-265zm0 -36l0 0c-191,0 -401,122 -489,284 -166,304 -53,768 55,1217 119,489 231,951 -63,1081 -20,9 -40,13 -59,13 -38,0 -69,-18 -91,-53 -7,-10 -12,-23 -18,-37 -18,-41 -42,-98 -108,-98 -9,0 -19,1 -28,3 -1,1 -2,1 -3,1 -38,12 -97,49 -64,163 66,235 239,376 461,376 247,0 481,-170 569,-414 65,-180 52,-389 33,-551 -15,-130 -58,-307 -103,-494 -102,-421 -230,-945 -66,-1093 28,-25 71,-54 103,-54 3,0 7,0 9,1 24,6 31,12 11,90 -15,59 -38,149 54,184 1,0 2,1 3,1 11,3 22,5 33,5 24,0 58,-9 85,-48 58,-85 45,-264 11,-350 -58,-146 -177,-227 -335,-227z"/>
   </g>
   <path class="fil2" d="M2043 225c-46,-109 -152,-171 -267,-183 -117,-12 -233,34 -319,113 -93,84 -141,200 -166,321 -124,605 145,1184 186,1781 9,136 11,316 -118,401 -56,37 -131,44 -192,16 -58,-27 -98,-86 -134,-137 -21,-31 -67,-19 -69,18 -7,118 96,212 203,241 120,32 250,-10 328,-105 85,-103 107,-237 104,-368 -3,-146 -25,-292 -51,-436 -52,-288 -130,-573 -159,-865 -14,-146 -18,-296 1,-441 15,-122 47,-249 137,-337 92,-90 222,-118 341,-67 130,56 187,190 145,324 -1,3 3,6 5,3 61,-78 62,-190 25,-279z"/>
   <path class="fil3" d="M1904 245c-86,-44 -182,-2 -245,63 -158,162 -163,420 -137,630 14,120 41,237 66,355 27,124 47,251 62,377 17,132 28,264 33,397 5,117 9,237 -16,352 -25,110 -73,215 -167,281 -86,61 -182,63 -283,74 -38,3 -59,46 -32,76 142,155 398,12 504,-119 144,-178 158,-419 147,-639 -11,-248 -44,-499 -108,-740 -58,-218 -133,-445 -118,-673 8,-114 41,-248 129,-327 37,-33 88,-53 137,-39 57,16 94,63 92,123 0,6 8,7 12,3 51,-69 -10,-160 -76,-194z"/>
   <path class="fil1" d="M1276 146c-63,15 -119,61 -155,113 -37,54 -58,120 -51,185 1,6 9,6 10,0 6,-61 27,-120 63,-169 17,-24 38,-46 60,-65 24,-20 51,-34 79,-48 10,-5 3,-18 -6,-16z"/>
   <path class="fil1" d="M1200 93c-69,19 -130,56 -175,111 -46,55 -72,119 -77,190 0,4 5,4 6,1 13,-64 46,-126 89,-175 43,-49 99,-90 162,-112 9,-3 5,-17 -5,-15z"/>
  </g>
 </g>
</svg>
