<?xml version="1.0" encoding="UTF-8"?>
<!DOCTYPE svg PUBLIC "-//W3C//DTD SVG 1.1//EN" "http://www.w3.org/Graphics/SVG/1.1/DTD/svg11.dtd">
<!-- Creator: CorelDRAW X8 -->
<svg xmlns="http://www.w3.org/2000/svg" xml:space="preserve" width="4.2332mm" height="4.2332mm" version="1.1" style="shape-rendering:geometricPrecision; text-rendering:geometricPrecision; image-rendering:optimizeQuality; fill-rule:evenodd; clip-rule:evenodd"
viewBox="0 0 423 423"
 xmlns:xlink="http://www.w3.org/1999/xlink">
 <defs>
  <style type="text/css">
   <![CDATA[
    .str0 {stroke:#4334AC;stroke-width:7.62}
    .fil4 {fill:#332C2B}
    .fil1 {fill:#040404}
    .fil2 {fill:#373737}
    .fil3 {fill:#4334AC}
    .fil0 {fill:#FEEBC4}
   ]]>
  </style>
   <clipPath id="id0">
    <rect x="-12515" y="-2443" width="8334" height="7157"/>
   </clipPath>
 </defs>
 <g id="Layer_x0020_1">
  <metadata id="CorelCorpID_0Corel-Layer"/>
  <polygon class="fil0 str0" points="193,225 323,225 323,142 "/>
  <g style="clip-path:url(#id0)">
   <image x="-12515" y="-2443" width="8334" height="7157" xlink:href="lingkaran_Images\lingkaran_ImgID1.png"/>
  </g>
  <path class="fil1" d="M390 4238l0 -71c-813,-34 -1447,-367 -1843,-768 -414,-418 -736,-1006 -768,-1843l-72 0c34,691 154,999 481,1519 250,398 675,729 1101,923 348,159 678,223 1101,240z"/>
  <path class="fil1" d="M-2292 1532l71 1c33,-813 367,-1448 768,-1845 420,-416 1001,-733 1843,-768l0 -71c-682,28 -1006,157 -1519,480 -746,469 -1128,1332 -1163,2203z"/>
  <path class="fil1" d="M415 4167l0 71c421,-17 752,-81 1101,-240 256,-116 606,-352 798,-543 177,-177 437,-565 543,-798 161,-353 220,-674 241,-1101l-72 0c-31,812 -369,1448 -768,1843 -420,416 -1001,733 -1843,768z"/>
  <path class="fil1" d="M415 -1080c534,23 1019,145 1440,441l347 281c123,6 45,5 78,-34 -67,-78 -253,-218 -361,-288 -157,-101 -244,-160 -420,-239 -342,-153 -669,-215 -1084,-232l0 71z"/>
  <path class="fil1" d="M2310 -252l7 19c33,2 25,-6 17,30 39,-2 30,-10 19,28 42,-5 33,-13 23,28 40,-9 32,-16 23,25 41,-9 26,-15 37,29 34,19 32,25 59,61 359,455 507,974 531,1565l71 -1c-24,-602 -146,-1019 -461,-1491 -56,-83 -207,-314 -293,-353l-33 60z"/>
  <path class="fil1" d="M4718 1176l-135 163c98,-3 33,55 138,-135 60,109 -7,102 72,140 23,-37 23,-10 5,-72 -15,-50 -16,-24 -30,-93l117 -156c-121,-34 -51,0 -73,33 -36,53 9,38 -75,85l1 -128 -85 4 65 159z"/>
  <path class="fil1" d="M0 -2063c81,134 83,200 14,323l102 0c-47,-122 39,-218 151,-324 -184,-16 0,10 -159,138 -22,-38 -53,-88 -16,-128l-92 -9z"/>
  <path class="fil1" d="M31 1465c-22,-108 -10,-229 127,-237 15,51 24,79 1,142 -30,84 -50,84 -128,95zm-31 7c60,11 122,18 170,-43 61,-77 75,-263 -77,-219 -59,16 -93,75 -103,136l10 126z"/>
  <path class="fil1" d="M2638 -446c24,-114 -4,-102 83,-112 3,5 9,6 9,14 1,7 7,11 7,14 1,3 23,46 -27,73 -38,20 -29,4 -72,11zm-87 142c76,-9 61,13 73,-50 34,-173 151,38 153,-221 -32,-5 -99,-12 -174,-12 20,64 11,125 -14,197l-38 86z"/>
  <path class="fil2" d="M74 -228c72,-20 64,10 148,-126 41,-66 66,-106 95,-192 -95,32 -50,-3 -63,70 -10,61 -10,50 -29,104 -37,-69 -16,-110 -47,-142 -57,-58 75,18 -68,-32l44 100c19,68 31,134 -11,167 -53,41 -28,-33 -69,51z"/>
  <path class="fil2" d="M2973 -218c-46,-40 -82,-76 -85,-181l47 -167c29,-39 4,-6 38,-37 -184,37 -182,350 0,385z"/>
  <path class="fil2" d="M3410 -489c50,23 20,-36 51,49 29,77 27,108 12,183 -84,35 -31,-35 -86,53 101,-32 155,-118 206,-222 69,-144 16,-71 0,-97l-28 94c-13,45 -9,36 -38,76l-44 -163c-47,12 -51,-1 -73,27z"/>
  <path class="fil2" d="M3036 -493l45 124 -86 71c61,-29 49,-13 80,-71 61,74 5,110 111,41 -101,-71 -54,-124 24,-183 -76,11 -28,-2 -88,40 -42,-63 -12,-70 -86,-22z"/>
  <path class="fil2" d="M3649 -220c21,-2 17,15 61,-13l37 -36c34,-51 90,-318 -98,-332 130,97 99,276 39,349 -31,37 6,-2 -39,32z"/>
  <path class="fil2" d="M2171 1664c89,-22 60,89 19,136l-49 44c113,-52 7,20 61,-32 24,-24 10,-13 24,-42 52,85 2,37 95,74 -4,-6 -11,-23 -13,-20l-19 -40c-20,-77 -6,-86 26,-118l-39 -15c-33,1 -63,-77 -105,13z"/>
  <path class="fil2" d="M1195 260l44 15c-5,32 -17,77 -19,94 -13,135 -4,46 18,78 48,-85 23,-145 93,-176l49 -11c-37,-24 -163,-25 -185,0z"/>
  <g id="_1952754582512">
   <path class="fil3" d="M212 56c-15,-9 -30,-9 -45,-1 15,-35 22,-53 22,-53 16,36 23,54 23,54z"/>
   <rect class="fil3" x="187" y="42" width="8.472" height="377.87"/>
  </g>
  <g id="_1952754583312">
   <path class="fil3" d="M373 243c9,-15 9,-31 1,-46 35,15 53,23 53,23 -36,15 -54,23 -54,23z"/>
   <rect class="fil3" transform="matrix(1.51615E-14 0.570121 -1 2.65898E-14 387.312 217.453)" width="14.86" height="377.87"/>
  </g>
  <path class="fil4" d="M193 58c-92,0 -167,75 -167,167 0,92 75,166 167,166 92,0 166,-74 166,-166 0,-92 -74,-167 -166,-167zm0 18c-83,0 -149,67 -149,149 0,82 66,149 149,149 82,0 149,-67 149,-149 0,-82 -67,-149 -149,-149z"/>
 </g>
</svg>
