<?xml version="1.0" encoding="UTF-8"?>
<!DOCTYPE svg PUBLIC "-//W3C//DTD SVG 1.1//EN" "http://www.w3.org/Graphics/SVG/1.1/DTD/svg11.dtd">
<!-- Creator: CorelDRAW X8 -->
<svg xmlns="http://www.w3.org/2000/svg" xml:space="preserve" width="30mm" height="30mm" version="1.1" style="shape-rendering:geometricPrecision; text-rendering:geometricPrecision; image-rendering:optimizeQuality; fill-rule:evenodd; clip-rule:evenodd"
viewBox="0 0 3000 3000"
 xmlns:xlink="http://www.w3.org/1999/xlink">
 <defs>
  <style type="text/css">
   <![CDATA[
    .fil0 {fill:#267CA1;fill-rule:nonzero}
    .fil1 {fill:#340595;fill-rule:nonzero}
    .fil3 {fill:#267CA1;fill-rule:nonzero;fill-opacity:0.400000}
    .fil2 {fill:white;fill-rule:nonzero;fill-opacity:0.501961}
   ]]>
  </style>
 </defs>
 <g id="Layer_x0020_1">
  <metadata id="CorelCorpID_0Corel-Layer"/>
  <g id="_1791101373152">
   <g>
    <g>
     <path class="fil0" d="M1605 1234c-45,0 -91,-6 -138,-19 -266,-73 -336,-282 -312,-454 28,-211 199,-429 435,-429 33,0 67,4 100,13 76,20 204,103 251,206 107,132 131,295 64,438 -71,151 -224,245 -399,245 0,0 0,0 -1,0z"/>
     <path class="fil1" d="M1590 357c30,0 62,4 94,12 75,20 195,103 235,195 233,283 20,645 -314,645 -42,0 -86,-6 -131,-18 -520,-143 -283,-834 116,-834zm0 -51l0 0c-250,0 -431,230 -460,452 -25,182 49,404 331,481 48,14 97,21 144,21 183,0 348,-102 423,-260 71,-151 46,-323 -66,-463 -51,-108 -186,-195 -265,-216 -36,-10 -72,-15 -107,-15z"/>
    </g>
    <g>
     <path class="fil0" d="M1637 2808c-107,0 -205,-34 -285,-98 -141,-114 -197,-310 -142,-499 52,-181 193,-306 367,-326 15,-2 32,-2 49,-2 92,0 185,24 250,65 69,24 140,68 189,118 119,122 152,268 91,412 -79,188 -302,330 -519,330z"/>
     <path class="fil1" d="M1626 1908c79,0 172,19 239,63 70,23 138,68 182,113 303,308 -58,699 -411,699 -94,0 -187,-28 -268,-93 -281,-226 -157,-738 211,-780 15,-1 31,-2 47,-2zm0 -51l0 0c-18,0 -36,1 -52,3 -185,21 -333,153 -389,344 -57,199 2,405 152,525 84,68 188,104 299,104 227,0 461,-149 544,-346 64,-154 30,-309 -97,-438 -51,-53 -124,-99 -196,-124 -69,-42 -166,-68 -261,-68z"/>
    </g>
    <g>
     <path class="fil0" d="M1445 1764c-158,0 -302,-4 -442,-13 -119,-8 -268,-18 -344,-107 -37,-44 -53,-101 -47,-172 33,-199 202,-199 257,-199 48,0 97,6 144,11l31 4c208,23 410,34 616,34 191,0 353,-10 484,-18 92,-5 171,-10 237,-10 172,0 281,33 297,198 5,232 -232,238 -389,243 -24,0 -46,1 -67,2 -246,14 -510,27 -777,27z"/>
     <path class="fil1" d="M869 1299c57,0 117,8 172,14 235,26 440,34 619,34 327,0 562,-28 721,-28 175,0 258,34 272,175 5,236 -270,208 -433,218 -258,15 -516,27 -775,27 -147,0 -293,-4 -440,-14 -166,-11 -387,-26 -368,-251 24,-143 122,-175 232,-175zm0 -51l0 0c-163,0 -257,73 -281,218 -1,1 -1,3 -1,4 -6,78 11,141 53,190 83,97 238,107 362,116 140,9 285,14 443,14 267,0 532,-14 778,-28 21,-1 43,-2 67,-2 156,-4 419,-11 414,-267 0,-1 0,-2 0,-4 -21,-203 -177,-220 -323,-220 -67,0 -147,4 -239,10 -130,8 -291,18 -482,18 -205,0 -406,-11 -613,-34l-31 -4c-48,-5 -98,-11 -147,-11z"/>
    </g>
   </g>
   <g>
    <path class="fil2" d="M1601 385c1,0 3,0 4,0 0,0 -1,0 -4,0z"/>
    <path class="fil2" d="M1727 417c-14,-8 -35,-15 -46,-20 -27,-11 -48,-12 -76,-12 0,0 -49,2 -46,2 -10,1 -19,3 -28,5 -22,5 -43,14 -64,23 -87,41 -140,124 -167,214 -28,95 -39,201 -4,295 27,73 74,128 148,155 5,1 11,-5 7,-10 -79,-115 -26,-271 16,-388 8,-23 21,-53 33,-67 5,-7 11,-12 17,-18 2,-2 5,-4 7,-5 -5,4 -5,4 0,1 6,-4 12,-8 19,-12 2,-1 3,-1 4,-2 0,0 1,0 3,-1 14,-5 28,-10 43,-14 12,-4 23,-9 34,-13 -10,4 6,-1 9,-2 8,-2 16,-3 23,-6 15,-5 24,-15 38,-23 3,-1 21,-9 30,-16 30,-21 35,-65 0,-86z"/>
   </g>
   <path class="fil2" d="M2417 1372c-77,-41 -167,-32 -252,-33 -92,-1 -184,-3 -276,-3 -179,-1 -359,9 -538,11 -88,1 -175,2 -263,6 -78,3 -163,-2 -239,22 -82,26 -171,139 -80,210 9,6 20,-2 15,-12 -39,-84 63,-124 127,-127 71,-3 143,2 215,3 146,3 292,-1 438,6 142,7 283,15 426,20 75,3 150,5 225,9 71,3 135,9 202,-20 37,-16 33,-75 0,-92z"/>
   <path class="fil2" d="M1678 1926c-10,-3 -20,-5 -31,-8 14,7 8,5 -18,-8 -10,-1 -19,-2 -28,-3 -31,0 -67,14 -94,28 -48,24 -88,64 -119,108 -55,78 -74,179 -76,273 -2,173 90,359 272,397 5,1 8,-6 4,-9 -115,-80 -151,-223 -131,-356 8,-62 31,-126 67,-174 18,-23 34,-35 61,-49 2,-1 4,-2 4,-3 1,0 2,0 3,0 8,-4 17,-7 26,-9 17,-6 31,-13 44,-22 6,-1 16,-4 16,-4 85,-20 73,-135 0,-161z"/>
   <path class="fil3" d="M1966 729c-14,-42 -38,-95 -86,-101 -26,-10 -59,-5 -74,22 0,1 -1,3 -1,4 -8,8 -15,18 -20,29 -5,13 -7,27 -8,42 -6,29 -11,56 -13,86 -1,4 -2,9 -3,14 -3,12 -6,23 -9,34 -2,5 -3,10 -5,15 -1,3 -2,5 -3,8 0,0 0,0 -1,1 -1,3 -2,6 -3,8 -3,5 -5,10 -7,15 -5,9 -10,17 -16,26 0,0 0,0 0,1 0,0 0,0 -1,0 -4,5 -8,9 -12,14 -5,5 -25,31 -15,17 8,-9 -3,4 -4,6 -13,17 -16,21 -10,13 3,-5 2,-5 -3,0 0,1 -1,1 -1,2 -1,0 -2,1 -4,2 -11,8 -19,18 -29,27 -5,4 -11,9 -20,13 -9,5 -18,6 -27,9 -12,4 -21,13 -32,18 -15,6 -15,33 0,40 12,5 23,13 37,15 14,2 27,1 41,1 27,1 55,4 81,-1 7,-1 14,-4 21,-6 10,-4 6,-4 3,-4 1,0 3,0 6,-1 20,-2 41,-10 57,-20 26,-16 51,-36 73,-56 48,-46 79,-108 92,-172 3,-21 8,-43 8,-63 0,-20 -6,-40 -12,-58z"/>
   <path class="fil3" d="M1980 2317c-4,-8 -9,-16 -15,-24 -16,-21 -35,-35 -60,-44 -30,-11 -73,7 -87,35 -7,16 -11,32 -15,48 -14,21 -19,44 -22,70 0,10 -1,20 -2,30 -2,12 -4,24 -6,36 2,-9 3,-18 4,-28 -1,10 -3,20 -4,30 -1,4 -1,7 -1,11 -2,7 -4,14 -7,21 2,-6 4,-11 7,-16l0 0c-5,9 -8,19 -10,29 -2,5 -5,10 -6,15 -2,5 -2,9 -2,14 0,1 -1,3 -1,5 0,0 0,0 0,0 -5,6 -9,11 -11,19 0,0 0,0 0,1 -2,1 -3,5 -4,8 -4,1 -7,2 -10,3 -11,4 -9,21 3,21 3,0 6,1 8,0 2,0 5,1 5,0 3,2 5,4 9,5 1,0 2,0 3,0 9,7 22,8 34,7 7,2 13,2 20,2 12,2 25,2 36,-2 4,-1 11,-4 16,-6 21,-5 39,-18 56,-32 14,-9 27,-18 38,-31 8,-11 19,-22 25,-34 7,-13 12,-27 18,-41 19,-50 18,-111 -19,-152z"/>
   <path class="fil3" d="M2503 1525c-29,-8 -55,-19 -86,-17 -32,1 -65,8 -97,15 -63,14 -126,28 -191,34 -131,12 -264,1 -395,-4 -130,-4 -259,-14 -389,-13 -62,0 -124,2 -186,10 -51,7 -118,13 -157,51 -2,2 -2,7 1,8 46,21 105,12 155,13 70,1 140,3 210,8 139,11 277,34 415,52 129,18 260,26 390,28 68,0 138,-2 206,-15 71,-14 110,-45 152,-101 19,-25 -1,-61 -28,-69z"/>
   <path class="fil1" d="M2286 436c-25,-41 -55,-78 -90,-110 -36,-33 -75,-59 -119,-78 -45,-20 -89,-30 -137,-31 -8,0 -10,12 -2,14 85,22 167,64 232,124 32,30 59,64 81,101 23,39 34,82 54,123 7,14 29,7 29,-8 0,-47 -25,-96 -48,-135z"/>
   <path class="fil1" d="M2320 163c-41,-26 -86,-44 -132,-56 -47,-12 -94,-12 -142,-7 -10,2 -10,16 0,17 45,4 89,16 130,31 41,15 79,35 114,59 73,48 126,119 176,188 9,12 27,5 24,-10 -18,-96 -90,-170 -170,-222z"/>
  </g>
 </g>
</svg>
