<?xml version="1.0" encoding="UTF-8"?>
<!DOCTYPE svg PUBLIC "-//W3C//DTD SVG 1.1//EN" "http://www.w3.org/Graphics/SVG/1.1/DTD/svg11.dtd">
<!-- Creator: CorelDRAW X8 -->
<svg xmlns="http://www.w3.org/2000/svg" xml:space="preserve" width="2.7092mm" height="2.7092mm" version="1.1" style="shape-rendering:geometricPrecision; text-rendering:geometricPrecision; image-rendering:optimizeQuality; fill-rule:evenodd; clip-rule:evenodd"
viewBox="0 0 271 271"
 xmlns:xlink="http://www.w3.org/1999/xlink">
 <defs>
  <style type="text/css">
   <![CDATA[
    .str1 {stroke:#332C2B;stroke-width:20}
    .str2 {stroke:#332C2B;stroke-width:7.62}
    .str3 {stroke:#332C2B;stroke-width:7.62}
    .str0 {stroke:#5F5D5D;stroke-width:20;stroke-linecap:round;stroke-linejoin:round}
    .fil0 {fill:none}
    .fil6 {fill:#C9CACA}
    .fil5 {fill:#A1A1A1}
    .fil4 {fill:#F4A22A}
    .fil3 {fill:#E62129;fill-rule:nonzero}
    .fil1 {fill:#00A2E9;fill-rule:nonzero}
    .fil2 {fill:#009B4C;fill-rule:nonzero}
   ]]>
  </style>
   <clipPath id="id0">
    <rect x="-8232" y="-1324" width="4339" height="4057"/>
   </clipPath>
 </defs>
 <g id="Layer_x0020_1">
  <metadata id="CorelCorpID_0Corel-Layer"/>
  <line class="fil0 str0" x1="2698" y1="-140" x2="2698" y2= "-57" />
  <polyline class="fil0 str0" points="2588,22 2698,-57 2811,24 "/>
  <path class="fil1" d="M2817 -38c-1,1 -3,3 -5,4l-5 5 11 13c0,1 1,2 1,3 0,1 -1,2 -2,3 -1,1 -2,1 -3,1 -1,0 -2,0 -4,-1 -2,-3 -5,-7 -10,-12 -2,1 -4,4 -8,8 -2,1 -3,2 -3,2 -1,1 -2,2 -4,2 -1,0 -2,-1 -3,-1 -1,-1 -1,-2 -1,-4 0,-1 1,-2 2,-4 2,-2 4,-3 5,-4 1,-1 4,-4 7,-7 -2,-1 -3,-3 -4,-5 -2,-2 -3,-4 -5,-5 -1,-1 -2,-2 -2,-3 0,-1 1,-2 2,-3 1,-1 2,-2 3,-2 2,0 4,2 7,5l5 7c2,-1 4,-3 6,-5 3,-2 4,-4 5,-5 1,-2 3,-2 4,-2 1,0 3,0 3,1 1,1 2,2 2,3 0,2 -1,4 -4,6z"/>
  <path class="fil2" d="M2755 -137c-2,5 -6,13 -12,25 -3,6 -5,11 -7,14 0,2 -1,4 -2,7 -1,2 -2,3 -4,3 -2,0 -3,0 -4,-1 -1,-1 -1,-2 -1,-3 0,-3 2,-9 7,-19 -2,-5 -6,-13 -12,-22 0,-1 -1,-2 -2,-3 0,-1 -1,-2 -1,-3 0,-1 1,-2 2,-3 1,-1 2,-2 3,-2 2,0 3,1 4,2 3,4 7,11 11,20 3,-6 4,-9 5,-10 1,-4 3,-7 5,-9 1,-2 2,-3 4,-3 1,0 2,1 3,2 1,0 2,2 2,3 0,0 -1,1 -1,2z"/>
  <path class="fil3" d="M2610 -36c-2,2 -4,5 -7,8 -4,6 -6,9 -7,10 1,0 2,0 3,0 1,0 2,0 4,0 2,1 3,1 4,1 2,0 3,0 4,1 1,1 1,2 1,3 0,2 0,3 -1,4 -1,1 -2,1 -4,1 -1,0 -2,0 -4,0 -2,-1 -3,-1 -4,-1 -5,0 -10,0 -14,1 -1,0 -1,0 -2,0 -1,0 -2,0 -3,-1 -1,0 -1,-1 -1,-3 0,-1 0,-2 2,-4 5,-4 11,-11 18,-21 -2,0 -3,0 -4,0 -4,0 -8,0 -11,0 -3,-1 -4,-2 -4,-5 0,-1 0,-2 1,-3 1,-1 2,-1 3,-1 1,0 3,0 5,0 3,0 4,0 6,0 1,0 3,0 7,0 3,0 5,0 7,0 2,0 4,1 4,3 0,2 -1,4 -3,7z"/>
  <g style="clip-path:url(#id0)">
   <image x="-8232" y="-1324" width="4339" height="4057" xlink:href="sejarah_Images\sejarah_ImgID1.png"/>
  </g>
  <path class="fil0 str1" d="M-8173 -2758c9,1782 13,2672 13,2672 -1109,-153 -1726,-56 -1852,291 -19,-269 -601,-370 -1746,-304 0,-1790 0,-2685 0,-2685 1087,-76 1678,34 1772,330 131,-292 735,-394 1813,-304z"/>
  <path class="fil4" d="M54 119c1,-16 7,-32 15,-44 3,-4 6,-7 9,-11 35,-40 100,-41 137,-3 6,6 13,14 17,22 10,20 14,41 8,66 -2,11 -6,20 -11,28 -4,6 -12,17 -18,22 -9,7 -12,9 -23,15 -19,9 -46,11 -66,5 -19,-6 -19,-9 -27,-12l-13 12c1,1 0,1 2,2l13 7c5,3 10,5 17,7 35,12 77,4 105,-20 11,-8 18,-16 25,-28 28,-45 20,-102 -16,-139 -7,-7 -19,-16 -27,-20 -24,-12 -49,-17 -79,-10 -21,5 -39,15 -53,30 -2,1 -4,3 -6,5 -18,22 -24,39 -28,67 -10,1 -21,-1 -25,6 -2,5 -2,9 1,13 7,11 19,27 26,37 2,3 5,6 10,6 9,1 12,-9 16,-16 4,-7 7,-13 11,-20 5,-8 11,-15 6,-23 -4,-7 -16,-4 -26,-4z"/>
  <polygon class="fil5 str2" points="78,170 221,170 216,188 82,188 "/>
  <path class="fil6 str2" d="M78 66c20,0 53,-2 60,0 7,3 10,11 11,11l0 110c-1,-1 -4,-13 -13,-16 -9,-3 -38,0 -58,0 0,-35 0,-70 0,-105z"/>
  <path class="fil6 str2" d="M221 66c-19,0 -48,-3 -60,0 -13,4 -10,11 -12,11l0 110c2,-1 5,-14 14,-16 8,-2 37,0 58,0 0,-35 0,-70 0,-105z"/>
  <path class="fil1" d="M109 82c-1,0 -1,1 -2,2l-3 2 5 7c1,0 1,1 1,1 0,1 0,1 -1,2 0,0 -1,0 -2,0 0,0 -1,0 -1,0 -1,-2 -3,-4 -5,-6 -1,1 -3,2 -5,4 0,0 -1,1 -1,1 0,0 -1,1 -2,1 0,0 -1,-1 -1,-1 -1,0 -1,-1 -1,-2 0,0 0,-1 1,-2 1,0 2,-1 3,-2 0,0 1,-1 3,-3 -1,-1 -1,-2 -2,-3 -1,-1 -2,-1 -2,-2 -1,0 -1,-1 -1,-2 0,0 0,-1 1,-1 0,-1 0,-1 1,-1 1,0 2,1 3,3l3 3c1,-1 2,-2 3,-2 1,-1 2,-2 3,-3 0,-1 1,-1 2,-1 0,0 1,0 1,1 1,0 1,0 1,1 0,1 -1,2 -2,3z"/>
  <path class="fil2" d="M141 98c-2,3 -4,7 -7,13 -1,3 -2,5 -3,7 0,1 -1,2 -1,4 -1,1 -2,1 -3,1 0,0 -1,0 -1,0 -1,-1 -1,-1 -1,-2 0,-1 1,-4 4,-10 -2,-2 -4,-6 -7,-11 0,-1 0,-1 -1,-2 0,0 0,-1 0,-1 0,-1 0,-1 1,-2 0,0 1,-1 2,-1 0,0 1,1 1,1 2,3 4,6 6,10 2,-2 2,-4 3,-5 1,-1 1,-3 2,-4 1,-1 1,-2 2,-2 1,0 2,1 2,1 1,0 1,1 1,2 0,0 0,0 0,1z"/>
  <path class="fil3" d="M108 124c-1,0 -2,2 -3,3 -2,3 -3,4 -3,4 0,0 1,0 1,0 1,0 1,1 2,1 1,0 1,0 2,0 0,0 1,0 1,0 1,1 1,1 1,2 0,0 0,1 -1,1 0,1 -1,1 -1,1 -1,0 -1,0 -2,0 -1,-1 -1,-1 -2,-1 -2,0 -4,1 -6,1 0,0 0,0 -1,0 0,0 -1,0 -1,0 0,-1 -1,-1 -1,-2 0,0 1,-1 1,-1 3,-3 5,-6 8,-10 -1,0 -1,0 -2,0 -1,0 -3,0 -4,0 -1,0 -2,-1 -2,-2 0,0 0,-1 0,-1 1,-1 1,-1 2,-1 0,0 1,0 2,0 1,0 2,0 2,0 1,0 2,0 3,0 2,0 3,0 3,0 2,0 2,1 2,2 0,1 0,2 -1,3z"/>
  <polygon class="fil1 str3" points="234,157 174,35 151,47 210,168 "/>
 </g>
</svg>
