<?xml version="1.0" encoding="UTF-8"?>
<!DOCTYPE svg PUBLIC "-//W3C//DTD SVG 1.1//EN" "http://www.w3.org/Graphics/SVG/1.1/DTD/svg11.dtd">
<!-- Creator: CorelDRAW X8 -->
<svg xmlns="http://www.w3.org/2000/svg" xml:space="preserve" width="50mm" height="50mm" version="1.1" style="shape-rendering:geometricPrecision; text-rendering:geometricPrecision; image-rendering:optimizeQuality; fill-rule:evenodd; clip-rule:evenodd"
viewBox="0 0 5000 5000"
 xmlns:xlink="http://www.w3.org/1999/xlink">
 <defs>
  <style type="text/css">
   <![CDATA[
    .fil0 {fill:black}
    .fil4 {fill:#0083CA}
    .fil1 {fill:#7AC843}
    .fil2 {fill:#BA3737}
    .fil3 {fill:#FFC60B}
   ]]>
  </style>
 </defs>
 <g id="Layer_x0020_1">
  <metadata id="CorelCorpID_0Corel-Layer"/>
  <g id="_1735798716560">
   <path class="fil0" d="M4965 4361l0 -62c-48,-49 -67,-103 -118,-167 -205,-255 -158,-180 -382,-401 -87,-86 -177,-173 -265,-258l-275 -248c-126,-96 -160,-182 -273,-270l-523 -520c-251,-263 -823,-788 -1097,-1013 -86,-71 -182,-178 -263,-260l-543 -502c-124,-99 -425,-445 -590,-456 -20,341 -22,766 -30,1077 -18,716 -59,1428 -65,2145 -2,192 28,357 31,544 9,435 -18,314 760,345 349,14 764,90 1044,90 578,1 1050,49 1610,36 308,-6 799,111 979,-80z"/>
   <path class="fil1" d="M706 1332c-7,279 9,710 -10,913 -35,372 -12,961 -6,1344 405,-62 83,-73 650,-44 103,229 -10,355 27,542l30 86c466,75 956,81 1436,81 207,0 828,71 971,37 -78,-232 31,-498 178,-672 68,-80 25,11 61,-94 -81,-39 -115,-68 -178,-130l-789 -798c-58,-54 -107,-87 -165,-141 -56,-52 -96,-110 -154,-172 -213,-228 -448,-400 -662,-600l-654 -636c-180,182 -336,314 -735,284z"/>
   <path class="fil2" d="M3912 4283l843 23c-69,-168 -525,-613 -671,-690 -137,183 -222,332 -172,667z"/>
   <path class="fil3" d="M720 1242c292,38 565,-101 637,-274l-343 -313c-65,-57 -89,-102 -163,-163 -59,-48 -98,-93 -138,-164l7 914z"/>
   <path class="fil4" d="M706 3690c13,585 -75,477 524,477 -30,-172 17,-324 15,-502 -183,-11 -365,-16 -539,25z"/>
   <path class="fil0" d="M1223 1831c121,79 305,153 417,29l-70 -18c-129,-17 -167,18 -267,-69 56,-70 89,-61 133,-154 -86,15 -115,66 -193,105 -56,-56 -89,-139 -218,-148 -254,-18 -328,327 -83,356 111,13 202,-62 281,-101z"/>
   <path class="fil0" d="M3184 3972l27 -407c92,60 114,-54 236,11 60,183 -138,66 -157,220 111,53 225,-29 253,-98 78,-188 -49,-202 -135,-250 73,-224 -260,-290 -275,-49l-39 481c17,90 26,77 90,92z"/>
   <path class="fil0" d="M2588 4619l-81 -90c-27,69 3,151 75,172 98,28 119,-50 164,-101 49,79 53,193 -22,263 -81,78 -166,4 -283,-7 30,77 62,106 153,119 241,32 353,-175 174,-479 -110,27 -61,80 -180,123z"/>
   <path class="fil0" d="M3156 1787c-109,29 -253,46 -318,117 27,73 155,196 260,201 -26,-112 -86,-143 -184,-182 100,-60 205,-11 327,-67 21,-149 -60,-179 -178,-222l93 153z"/>
   <path class="fil0" d="M70 2608l0 55 55 15c78,-114 81,-84 113,-172 81,34 3,0 62,38 61,39 -30,15 71,33 -15,-55 -65,-140 -68,-160 -9,-46 33,-90 41,-156 -43,1 -37,-1 -67,22l-54 59 -94 -45c-5,82 27,91 65,129 -39,90 -66,116 -124,182z"/>
   <path class="fil1" d="M887 1847c121,29 210,-12 286,-75 -34,-54 -76,-133 -185,-124 -114,11 -132,100 -101,199z"/>
   <path class="fil0" d="M947 3837c-109,75 15,160 88,120 93,-52 24,-197 -88,-120z"/>
   <path class="fil1" d="M3169 3336l32 177c69,-45 115,-50 131,-152 -42,-28 -116,-52 -163,-25z"/>
  </g>
 </g>
</svg>
