<?xml version="1.0" encoding="UTF-8"?>
<!DOCTYPE svg PUBLIC "-//W3C//DTD SVG 1.1//EN" "http://www.w3.org/Graphics/SVG/1.1/DTD/svg11.dtd">
<!-- Creator: CorelDRAW X8 -->
<svg xmlns="http://www.w3.org/2000/svg" xml:space="preserve" width="2.7092mm" height="1.9472mm" version="1.1" style="shape-rendering:geometricPrecision; text-rendering:geometricPrecision; image-rendering:optimizeQuality; fill-rule:evenodd; clip-rule:evenodd"
viewBox="0 0 271 195"
 xmlns:xlink="http://www.w3.org/1999/xlink">
 <defs>
  <style type="text/css">
   <![CDATA[
    .str0 {stroke:#5F5D5D;stroke-width:20;stroke-linecap:round;stroke-linejoin:round}
    .fil0 {fill:none}
    .fil3 {fill:#E62129;fill-rule:nonzero}
    .fil1 {fill:#00A2E9;fill-rule:nonzero}
    .fil2 {fill:#009B4C;fill-rule:nonzero}
   ]]>
  </style>
 </defs>
 <g id="Layer_x0020_1">
  <metadata id="CorelCorpID_0Corel-Layer"/>
  <line class="fil0 str0" x1="135" y1="13" x2="135" y2= "96" />
  <polyline class="fil0 str0" points="26,175 135,96 248,177 "/>
  <path class="fil1" d="M255 115c-2,1 -3,3 -5,4l-6 5 11 13c1,1 1,2 1,3 0,1 0,2 -1,3 -1,1 -3,1 -4,1 -1,0 -2,0 -3,-1 -2,-2 -6,-7 -10,-12 -2,1 -5,4 -9,8 -1,1 -2,2 -3,2 -1,1 -2,2 -3,2 -2,0 -3,-1 -4,-1 -1,-1 -1,-2 -1,-4 0,-1 1,-2 3,-4 1,-1 3,-3 4,-4 2,-1 4,-4 7,-6 -1,-2 -3,-4 -4,-6 -2,-2 -3,-4 -5,-5 -1,-1 -1,-2 -1,-3 0,-1 0,-2 1,-3 1,-1 2,-2 3,-2 2,0 4,2 7,5l6 7c2,-1 4,-3 5,-5 3,-2 5,-4 6,-5 1,-1 2,-2 3,-2 2,0 3,0 4,1 1,1 1,2 1,3 0,2 -1,4 -3,6z"/>
  <path class="fil2" d="M192 16c-2,5 -6,13 -12,25 -2,6 -5,11 -6,15 -1,1 -1,3 -3,6 0,2 -2,3 -4,3 -1,0 -2,0 -3,-1 -1,-1 -2,-2 -2,-3 0,-2 3,-9 7,-19 -2,-5 -6,-13 -12,-22 0,-1 -1,-2 -1,-3 -1,-1 -1,-2 -1,-3 0,-1 0,-2 1,-3 1,-1 2,-2 4,-2 1,0 2,1 3,2 3,4 7,11 12,20 2,-6 4,-9 4,-10 2,-4 3,-7 5,-9 1,-2 2,-3 4,-3 1,0 2,1 3,2 1,0 2,2 2,3 0,0 0,1 -1,2z"/>
  <path class="fil3" d="M47 117c-2,2 -4,5 -7,9 -4,5 -6,8 -7,9 1,0 3,0 4,0 0,0 2,0 4,1 1,0 3,0 3,0 2,0 3,0 4,1 1,1 1,2 1,4 0,1 0,2 -1,3 -1,1 -2,1 -4,1 0,0 -2,0 -4,0 -1,-1 -3,-1 -3,-1 -6,0 -10,1 -15,1 -1,0 -1,1 -1,1 -2,0 -3,-1 -4,-1 -1,-1 -1,-2 -1,-3 0,-2 1,-3 2,-4 6,-5 12,-12 18,-22 -1,0 -3,0 -4,0 -4,0 -7,0 -11,0 -3,-1 -4,-2 -4,-5 0,-1 0,-2 1,-3 1,-1 2,-1 4,-1 1,0 2,0 5,0 2,0 4,0 5,0 1,0 4,0 7,0 3,0 5,0 7,0 3,0 4,1 4,3 0,2 -1,4 -3,7z"/>
 </g>
</svg>
