<?xml version="1.0" encoding="UTF-8"?>
<!DOCTYPE svg PUBLIC "-//W3C//DTD SVG 1.0//EN" "http://www.w3.org/TR/2001/REC-SVG-20010904/DTD/svg10.dtd">
<!-- Creator: CorelDRAW X8 -->
<svg xmlns="http://www.w3.org/2000/svg" xml:space="preserve" width="850px" height="800px" version="1.0" style="shape-rendering:geometricPrecision; text-rendering:geometricPrecision; image-rendering:optimizeQuality; fill-rule:evenodd; clip-rule:evenodd"
viewBox="0 0 850 800"
 xmlns:xlink="http://www.w3.org/1999/xlink">
 <defs>
  <style type="text/css">
   <![CDATA[
    .str2 {stroke:#18181A;stroke-width:1.92638}
    .str4 {stroke:#003B4F;stroke-width:1.11732}
    .str3 {stroke:#D6D4D4;stroke-width:0.900001}
    .str1 {stroke:white;stroke-width:4.58386;stroke-dasharray:9.166544 9.166544}
    .str0 {stroke:white;stroke-width:4.05709;stroke-dasharray:8.349220 8.349220}
    .fil2 {fill:none;fill-rule:nonzero}
    .fil21 {fill:#FEFEFE;fill-rule:nonzero}
    .fil15 {fill:#FFF000;fill-rule:nonzero}
    .fil7 {fill:#002A38;fill-rule:nonzero}
    .fil8 {fill:#003B4F;fill-rule:nonzero}
    .fil1 {fill:#2B80C8;fill-rule:nonzero}
    .fil5 {fill:#3D3D3F;fill-rule:nonzero}
    .fil13 {fill:#90F2E2;fill-rule:nonzero}
    .fil16 {fill:#AEC3FF;fill-rule:nonzero}
    .fil19 {fill:#CCDBFD;fill-rule:nonzero}
    .fil25 {fill:#D6B600;fill-rule:nonzero}
    .fil11 {fill:#D6D4D4;fill-rule:nonzero}
    .fil4 {fill:#F0C1BA;fill-rule:nonzero}
    .fil24 {fill:#F6BA42;fill-rule:nonzero}
    .fil9 {fill:#F6F4F4;fill-rule:nonzero}
    .fil14 {fill:#FF2A00;fill-rule:nonzero}
    .fil22 {fill:#FF3A28;fill-rule:nonzero}
    .fil6 {fill:#FFA82F;fill-rule:nonzero}
    .fil17 {fill:#FFA82F;fill-rule:nonzero}
    .fil3 {fill:#FFD4CA;fill-rule:nonzero}
    .fil18 {fill:#FFD4CA;fill-rule:nonzero}
    .fil23 {fill:#FFE2DF;fill-rule:nonzero}
    .fil10 {fill:white;fill-rule:nonzero}
    .fil12 {fill:#34383A;fill-rule:nonzero;fill-opacity:0.090196}
    .fil0 {fill:#3D3D3F;fill-rule:nonzero;fill-opacity:0.129412}
    .fil20 {fill:white;fill-rule:nonzero;fill-opacity:0.501961}
   ]]>
  </style>
 </defs>
 <g id="Layer_x0020_1">
  <metadata id="CorelCorpID_0Corel-Layer"/>
  <g id="_2830285369536">
   <g>
    <g>
     <path class="fil0" d="M679 439c0,150 -121,270 -270,270 -149,0 -270,-120 -270,-270 0,-149 121,-269 270,-269 149,0 270,120 270,269z"/>
     <path class="fil1" d="M669 437c0,149 -121,270 -270,270 -149,0 -270,-121 -270,-270 0,-149 121,-269 270,-269 149,0 270,120 270,269z"/>
    </g>
    <g>
     <path class="fil2 str0" d="M301 679c-318,-39 -370,-444 -112,-543 23,-9 48,-11 73,-11 104,-1 205,36 309,44 31,3 66,2 91,-18 6,-5 12,-11 16,-19 3,-7 5,-14 5,-22 2,-35 -23,-70 -57,-79 -35,-10 -75,6 -92,37"/>
     <path class="fil2 str1" d="M591 685c78,-19 148,-68 190,-136 43,-68 55,-153 33,-227 -22,-74 -79,-137 -152,-165"/>
    </g>
   </g>
   <g>
    <g>
     <g>
      <g>
       <g>
        <g>
         <path class="fil3" d="M369 348c0,0 2,46 47,46 37,0 34,-49 34,-49l-81 3z"/>
         <path class="fil3" d="M410 217c-53,0 -63,37 -63,80 2,79 80,88 103,62 40,-43 52,-143 -40,-142z"/>
         <path class="fil4" d="M357 284c-5,3 -9,4 -10,4 0,3 0,6 0,9 1,24 8,42 19,53 -5,-8 -8,-19 -9,-66z"/>
         <path class="fil4" d="M347 288c0,0 -1,-16 -8,-18 -11,-2 -15,35 9,42l-1 -24z"/>
         <path class="fil4" d="M481 292c0,0 5,-8 13,-2 7,5 -2,36 -21,30l8 -28z"/>
        </g>
        <g>
         <path class="fil5" d="M432 214c-77,-17 -90,49 -85,74l0 0c1,0 5,-1 10,-4 11,-5 25,-16 24,-36 0,0 17,28 86,36 0,12 4,20 9,25 0,0 3,-7 5,-17l0 0c0,0 0,0 0,0 5,-24 6,-66 -49,-78z"/>
         <line class="fil2 str2" x1="381" y1="248" x2="377" y2= "233" />
        </g>
       </g>
       <g>
        <path class="fil3" d="M197 618c-11,-6 -15,-20 -9,-31l75 -143c6,-11 20,-16 31,-10 11,6 15,20 10,31l-76 143c-6,11 -19,16 -31,10z"/>
        <path class="fil3" d="M601 627c12,-5 18,-18 13,-29l-58 -152c-4,-11 -17,-17 -29,-13 -12,5 -18,18 -13,30l58 151c4,12 17,17 29,13z"/>
        <g>
         <path class="fil6" d="M411 365c-12,-1 -117,16 -138,46 -14,18 -30,152 23,249 0,0 48,52 137,48 78,-4 109,-43 111,-68 4,-49 30,-211 -23,-244 -39,-25 -83,-28 -110,-31z"/>
         <polygon class="fil6" points="278,403 215,492 285,524 328,432 "/>
         <polygon class="fil6" points="521,396 590,467 529,513 496,437 "/>
        </g>
       </g>
      </g>
      <g>
       <path class="fil3" d="M321 727l38 -10 12 44 -39 10c-12,3 -38,-7 -43,-15 -6,-11 20,-26 32,-29z"/>
       <path class="fil7" d="M354 721c0,0 236,-126 279,-136 44,-10 72,8 69,33 -2,16 -19,43 -68,72 -49,29 -186,75 -217,78 -30,3 -63,-2 -63,-2l0 -45z"/>
       <path class="fil3" d="M537 727l-39 -9 -11 44 39 10c12,3 38,-7 42,-15 7,-11 -19,-27 -31,-30z"/>
       <path class="fil7" d="M504 706c0,5 -12,63 -12,63 0,0 -192,-28 -259,-58 -67,-31 -89,-60 -98,-82 -8,-22 7,-62 74,-34 68,28 295,111 295,111z"/>
      </g>
     </g>
     <g>
      <g>
       <polygon class="fil8" points="275,298 393,316 391,523 276,503 "/>
       <polygon class="fil8" points="434,317 550,298 550,503 435,523 "/>
       <polygon class="fil9" points="409,311 507,274 536,295 430,319 "/>
       <polygon class="fil9" points="359,259 359,279 409,311 "/>
       <polygon class="fil9" points="464,256 409,311 464,276 "/>
       <polygon class="fil10" points="482,263 409,311 482,283 "/>
       <polygon class="fil10" points="340,264 340,286 409,311 "/>
       <path class="fil9" d="M288 294l109 23 12 -6c0,0 -88,-36 -90,-36 -2,1 -31,19 -31,19z"/>
       <polygon class="fil10" points="288,294 280,299 393,316 396,317 "/>
       <polygon class="fil10" points="430,319 536,295 543,299 "/>
       <path class="fil11" d="M393 316c0,0 17,16 43,2l-27 -7 -16 5z"/>
       <g>
        <line class="fil2 str3" x1="292" y1="291" x2="397" y2= "315" />
        <line class="fil2 str3" x1="300" y1="286" x2="402" y2= "314" />
        <line class="fil2 str3" x1="309" y1="281" x2="405" y2= "313" />
        <line class="fil2 str3" x1="316" y1="277" x2="408" y2= "312" />
       </g>
       <g>
        <line class="fil2 str3" x1="532" y1="292" x2="424" y2= "316" />
        <line class="fil2 str3" x1="524" y1="286" x2="418" y2= "316" />
        <line class="fil2 str3" x1="517" y1="282" x2="413" y2= "314" />
        <line class="fil2 str3" x1="511" y1="277" x2="411" y2= "312" />
       </g>
       <path class="fil7" d="M393 316c0,0 15,16 41,1l1 206c0,0 -22,15 -44,0l2 -207z"/>
      </g>
      <g>
       <g>
        <path class="fil12" d="M608 588l-108 -105c2,-7 -3,-17 -4,-18l-3 -20c0,-3 -2,-5 -5,-4 -3,0 -4,3 -4,5l2 18 -2 1 -8 -9c0,0 0,0 0,0l-20 -29c-1,-2 -4,-2 -6,-1 -2,2 -3,4 -1,6l18 27c0,0 -1,0 -1,0l-22 -24c-2,-2 -5,-2 -6,0 -2,1 -2,4 -1,6l22 24c-1,0 -1,1 -1,1l-22 -19c-2,-2 -5,-1 -7,1 -1,1 -1,4 1,6l23 20c0,0 0,1 0,1l-18 -13c-2,-2 -5,-1 -6,1 -2,2 -1,5 1,6l27 21c0,0 0,0 0,0 0,0 1,0 1,0 3,5 9,7 14,8l103 122c9,9 23,9 32,0 9,-8 10,-23 1,-32z"/>
        <path class="fil12" d="M391 468c2,-1 2,-4 1,-6 -2,-2 -4,-2 -6,-1l-24 17c0,-1 -1,-1 -1,-2l24 -21c1,-2 2,-4 0,-6 -2,-2 -5,-2 -6,-1l-25 22c0,0 0,0 -1,-1l21 -24c2,-2 1,-5 -1,-6 -1,-2 -4,-2 -6,0l-22 27c-1,0 -1,0 -1,0l-9 8 -1 -1 4 -18c0,-2 -1,-5 -4,-6 -2,0 -5,1 -6,4l-4 20c-1,1 -6,8 -6,14l-124 90c-10,8 -12,22 -4,32 8,10 22,12 32,4l122 -105c6,0 11,-2 15,-6 1,0 1,0 1,0 0,0 0,0 0,0l29 -18c3,-2 3,-4 2,-7 -1,-2 -4,-2 -6,-1l-19 12c0,-1 0,-2 0,-2l25 -18z"/>
       </g>
       <path class="fil3" d="M607 623c9,-9 10,-23 1,-32l-116 -113c-9,-9 -19,-13 -28,-5 -9,9 -3,16 6,25l105 124c9,9 23,10 32,1z"/>
      </g>
      <g>
       <path class="fil3" d="M478 469c2,-1 3,-4 1,-6l-23 -33c-1,-2 -4,-3 -6,-1 -2,1 -3,4 -1,6l23 33c1,2 4,3 6,1z"/>
       <path class="fil3" d="M471 474c2,-2 2,-4 0,-6l-27 -30c-2,-2 -5,-2 -6,-1 -2,2 -2,5 -1,7l27 30c2,2 5,2 7,0z"/>
       <path class="fil3" d="M467 483c1,-2 1,-5 -1,-7l-30 -26c-2,-2 -5,-2 -7,0 -1,2 -1,5 1,7l31 26c1,2 4,1 6,0z"/>
       <path class="fil3" d="M468 495c2,-2 1,-5 -1,-6l-32 -24c-2,-2 -5,-1 -6,0 -2,2 -1,5 1,7l32 24c2,2 5,1 6,-1z"/>
       <path class="fil3" d="M488 483l-4 -34c0,-3 1,-5 4,-6 3,0 5,2 5,4l4 28 -9 8z"/>
       <path class="fil3" d="M496 468c0,0 7,10 4,18 -1,3 -4,6 -8,9 -10,9 -26,8 -34,-2 -1,0 -1,0 -1,0 -9,-11 -1,-23 -1,-23 0,0 9,-9 14,-10 6,-2 6,-2 6,-2l8 10 2 -1 10 1z"/>
      </g>
      <g>
       <path class="fil3" d="M341 479c-2,-2 -2,-4 0,-6l26 -31c2,-2 5,-2 6,-1 2,2 3,5 1,7l-26 31c-2,1 -5,2 -7,0z"/>
       <path class="fil3" d="M348 484c-1,-1 -1,-4 1,-6l30 -27c1,-2 4,-2 6,0 2,2 1,5 0,7l-30 27c-2,1 -5,1 -7,-1z"/>
       <path class="fil3" d="M351 493c-1,-2 -1,-5 1,-6l34 -23c2,-2 4,-1 6,1 1,2 1,5 -1,6l-33 23c-3,2 -5,1 -7,-1z"/>
       <path class="fil3" d="M349 506c-2,-2 -1,-5 1,-6l35 -21c2,-2 5,-1 6,1 1,2 1,5 -2,6l-34 21c-2,2 -5,1 -6,-1z"/>
       <path class="fil3" d="M330 491l8 -33c0,-3 -1,-5 -4,-6 -2,-1 -5,1 -6,4l-6 27 8 8z"/>
       <path class="fil3" d="M324 475c0,0 -8,11 -6,19 1,3 4,6 7,9 9,10 25,11 34,2 1,0 1,-1 1,-1 11,-10 4,-22 4,-22 0,0 -8,-10 -14,-12 -6,-2 -6,-2 -6,-2l-9 9 -2 -2 -9 0z"/>
      </g>
      <path class="fil3" d="M190 612c-8,-10 -6,-24 4,-32l131 -96c10,-7 20,-10 28,0 8,10 3,17 -6,25l-125 107c-10,7 -24,6 -32,-4z"/>
     </g>
    </g>
    <path class="fil13" d="M470 279l21 -13c3,-1 6,0 6,3 0,3 -1,5 -3,6l-23 11 -1 -7z"/>
   </g>
   <g>
    <path class="fil0" d="M769 424l-28 -7 0 0 0 0 -1 0 0 0 -70 -3 -21 130 70 9c0,0 6,1 12,3 3,1 6,1 9,2 2,0 3,0 3,1 0,0 0,0 0,0l0 0c1,0 1,-1 1,-1l0 0 0 0c0,-5 16,-89 25,-133l0 -1z"/>
    <g>
     <g>
      <polygon class="fil14" points="712,557 712,557 642,548 663,417 734,420 "/>
      <path class="fil10" d="M736 562c0,0 0,0 0,0 0,0 -1,0 -3,-1 -3,0 -6,-1 -9,-2 -6,-1 -12,-2 -12,-2l-1 -1 1 0 21 -136 29 8 0 0c-9,44 -25,128 -25,133l0 0 0 1c0,0 0,0 -1,0l0 0z"/>
      <polygon class="fil10" points="717,467 716,467 664,463 671,438 720,438 "/>
     </g>
     <g>
      <line class="fil2 str4" x1="737" y1="421" x2="714" y2= "557" />
      <line class="fil2 str4" x1="743" y1="423" x2="720" y2= "559" />
      <line class="fil2 str4" x1="750" y1="425" x2="727" y2= "561" />
      <line class="fil2 str4" x1="757" y1="427" x2="734" y2= "563" />
     </g>
    </g>
   </g>
   <path class="fil15" d="M602 213c0,0 1,-16 17,-18 17,-2 48,-1 48,-1l0 9c0,0 -8,0 -18,0 0,10 -1,36 3,39 6,4 12,-1 12,-1 0,0 3,7 -5,12 -9,5 -17,0 -19,-9 -1,-8 2,-34 3,-41 -5,0 -10,0 -14,0 0,9 -2,48 -9,51 -7,4 -17,-1 -11,-10 5,-9 9,-10 11,-21 1,-8 1,-16 2,-20 -1,0 -2,0 -2,0 -5,0 -11,1 -18,10z"/>
   <path class="fil16" d="M303 200c1,-9 -5,-16 -16,-17 -10,-2 -17,4 -18,13 -1,8 5,15 15,16 11,2 18,-4 19,-12zm-60 49l13 -15c7,7 12,10 21,11 12,2 19,-7 22,-20 -5,4 -12,6 -20,5 -22,-3 -34,-16 -32,-36 3,-20 20,-33 42,-30 13,2 20,6 27,14 6,8 9,19 7,39 -4,31 -21,51 -49,48 -14,-2 -23,-8 -31,-16z"/>
   <path class="fil17" d="M481 225l5 -20c10,4 19,4 27,1 10,-5 14,-12 10,-20 -4,-8 -12,-10 -22,-6 -6,3 -11,7 -14,10l-16 -2 -17 -47 57 -26 8 18 -40 18 6 16c4,-2 7,-4 12,-6 18,-8 36,-6 46,15 9,20 0,39 -21,48 -15,7 -29,6 -41,1z"/>
   <polygon class="fil18" points="369,151 339,158 333,136 363,128 355,98 379,92 386,122 416,114 422,137 392,145 400,175 376,181 "/>
   <path class="fil19" d="M611 148l-18 -5 5 -18 -42 -12 1 -14 62 -42 16 5 -15 52 12 4 -5 15 -11 -3 -5 18zm-1 -65l-31 20 23 6 8 -26z"/>
   <g>
    <g>
     <g>
      <g>
       <path class="fil20" d="M621 383c-2,0 -3,-1 -3,-2 0,-1 1,-2 2,-2l160 -7c2,-1 3,0 3,2 0,1 -1,2 -2,2l-160 7c0,0 0,0 0,0z"/>
      </g>
     </g>
     <g>
      <g>
       <path class="fil20" d="M784 384c-1,0 -1,0 -2,-1 -1,-1 -1,-2 0,-3l8 -6 -8 -6c-1,0 -1,-2 0,-3 1,-1 2,-1 3,0l9 7c1,0 1,1 1,2 0,0 0,1 0,1l-10 9c0,0 -1,0 -1,0z"/>
      </g>
     </g>
    </g>
    <g>
     <g>
      <g>
       <path class="fil20" d="M706 409c-2,0 -2,-1 -3,-2l-7 -160c0,-1 1,-2 2,-2 1,0 2,0 2,2l8 160c0,1 -1,2 -2,2 0,0 0,0 0,0z"/>
      </g>
     </g>
     <g>
      <g>
       <path class="fil20" d="M706 241c0,0 -1,0 -1,0 -2,-1 -3,-3 -5,-4 -1,0 -2,-1 -3,-2l-3 5c-1,1 -2,2 -3,1 -1,-1 -1,-2 0,-3l4 -7c0,-1 1,-1 1,-1 1,0 2,0 2,0 2,2 3,3 5,4 1,1 3,2 4,4 1,0 1,2 1,3 -1,0 -1,0 -2,0z"/>
      </g>
     </g>
    </g>
    <g>
     <g>
      <path class="fil20" d="M768 409c-1,0 -2,-1 -2,-2l0 -3c-1,-1 0,-2 1,-2 2,0 3,1 3,2l0 3c0,1 -1,2 -2,2 0,0 0,0 0,0zm-2 -16l0 0c-1,0 -2,-1 -2,-2l0 -2c0,-2 1,-3 2,-3 1,0 2,1 2,2l0 3c1,1 0,2 -1,2 -1,0 -1,0 -1,0zm-2 -16l0 0c-1,0 -2,-1 -2,-2 0,0 0,-1 0,-2 0,-1 1,-2 2,-3 1,0 2,1 2,2 0,1 0,2 1,3 0,1 -1,2 -2,2 0,0 0,0 -1,0zm-130 -9l0 0c0,0 0,0 0,0 -1,0 -2,-1 -2,-2 0,-1 0,-2 0,-3 0,-1 1,-2 3,-2 1,1 2,2 2,3 -1,1 -1,2 -1,2 0,2 -1,2 -2,2zm128 -7l0 0c-1,0 -2,0 -2,-1 0,-1 0,-2 0,-3 -1,-1 0,-2 1,-2 1,-1 3,0 3,1 0,1 0,2 0,3 0,1 0,2 -2,2 0,0 0,0 0,0zm-126 -8l0 0c0,0 0,0 0,-1 -1,0 -2,-1 -2,-2 1,-1 1,-2 1,-3 0,-1 1,-2 2,-1 2,0 2,1 2,2 0,1 0,2 -1,3 0,1 -1,2 -2,2zm123 -7l0 0c-1,0 -2,-1 -2,-2 0,-1 0,-2 -1,-2 0,-2 1,-3 2,-3 1,0 2,0 3,2 0,0 0,1 0,2 0,1 0,2 -1,3 -1,0 -1,0 -1,0zm-119 -9l0 0c0,0 0,0 0,0 -2,0 -2,-2 -2,-3 0,-1 1,-1 1,-2 0,-1 1,-2 2,-2 2,1 2,2 2,3 0,1 -1,2 -1,2 0,1 -1,2 -2,2zm115 -7l0 0c-1,0 -2,0 -2,-1 0,-1 0,-2 -1,-3 0,-1 1,-2 2,-2 1,-1 2,0 2,1 1,1 1,2 1,3 0,1 0,2 -1,2 0,0 -1,0 -1,0zm-110 -8l0 0c0,0 0,0 -1,0 -1,-1 -1,-2 -1,-3 0,-1 1,-2 1,-3 0,-1 2,-1 3,-1 1,1 1,2 1,3 0,1 -1,2 -1,2 0,1 -1,2 -2,2zm105 -7l0 0c-1,0 -2,0 -2,-1 0,-1 0,-2 -1,-3 0,-1 0,-2 1,-2 2,-1 3,0 3,1 1,1 1,1 1,2 1,1 0,3 -1,3 0,0 -1,0 -1,0zm-99 -8l0 0c0,0 0,0 -1,0 -1,-1 -1,-2 -1,-3 1,-1 1,-2 2,-2 0,-1 1,-2 2,-1 1,0 2,1 1,3 0,0 0,1 -1,2 0,1 -1,1 -2,1zm93 -7l0 0c-1,0 -2,0 -2,-1 0,-1 -1,-1 -1,-2 -1,-1 0,-2 1,-3 1,-1 2,0 3,1 0,1 0,2 1,2 0,1 0,3 -1,3 0,0 -1,0 -1,0zm-85 -7l0 0c-1,0 -1,0 -1,0 -1,-1 -2,-2 -1,-3l1 -2c1,-1 2,-2 3,-1 1,0 2,2 1,3l-1 2c-1,1 -1,1 -2,1zm77 -7l0 0c-1,0 -1,0 -2,0 0,-1 -1,-2 -1,-3 -1,-1 -1,-2 0,-3 1,0 3,0 3,1 1,1 1,1 2,2 1,1 0,2 -1,3 0,0 0,0 -1,0zm-68 -6l0 0c-1,0 -1,0 -2,-1 0,0 -1,-2 0,-3 1,0 1,-1 2,-2 1,-1 2,-1 3,0 1,1 1,2 0,3 0,1 -1,1 -2,2 0,1 -1,1 -1,1zm58 -6l0 0c-1,0 -1,0 -2,0 0,-1 0,-1 -1,-1l-1 -1c0,-1 -1,-2 0,-3 1,-1 2,-1 3,0l1 1c0,0 1,0 1,1 1,0 1,2 0,3 0,0 -1,0 -1,0zm-47 -5l0 0c0,0 -1,0 -1,-1 -1,-1 -1,-2 0,-3 1,0 2,-1 3,-1 1,-1 2,-1 2,0 1,1 1,3 0,3 -1,1 -2,1 -2,2 -1,0 -1,0 -2,0zm33 -3l0 0c0,0 0,0 0,0 -1,-1 -2,-1 -3,-1 -1,-1 -1,-2 -1,-3 0,-1 1,-2 3,-1 0,0 1,0 2,1 1,0 2,1 1,3 0,0 -1,1 -2,1zm-18 -3l0 0c-1,0 -2,-1 -2,-2 0,-1 1,-2 2,-2 1,0 2,0 3,0 1,0 2,1 2,2 0,1 -1,2 -2,2 -1,0 -2,0 -3,0 0,0 0,0 0,0z"/>
     </g>
    </g>
   </g>
   <g>
    <path class="fil21" d="M56 403l35 -110 0 0 119 37 -154 73zm36 -109l0 0 -34 107 149 -71 -115 -36z"/>
    <path class="fil21" d="M90 365l15 -46 48 15 -63 31zm15 -45l0 0 -13 43 58 -29 -45 -14z"/>
    <g>
     <polygon class="fil21" points="107,307 106,306 108,299 109,300 "/>
     <polygon class="fil21" points="112,305 111,305 112,300 113,301 "/>
     <polygon class="fil21" points="115,309 114,309 116,302 117,302 "/>
     <polygon class="fil21" points="120,308 119,308 120,303 121,303 "/>
     <polygon class="fil21" points="123,312 122,311 124,304 125,305 "/>
     <polygon class="fil21" points="128,310 127,310 128,305 129,306 "/>
    </g>
    <g>
     <polygon class="fil21" points="91,302 90,302 93,295 94,295 "/>
     <polygon class="fil21" points="96,301 95,301 97,296 98,296 "/>
     <polygon class="fil21" points="99,305 98,304 101,297 102,298 "/>
     <polygon class="fil21" points="104,303 103,303 105,299 106,299 "/>
    </g>
    <g>
     <polygon class="fil21" points="131,315 130,314 132,307 133,307 "/>
     <polygon class="fil21" points="136,313 135,313 136,308 137,309 "/>
     <polygon class="fil21" points="139,317 138,317 140,310 141,310 "/>
     <polygon class="fil21" points="144,316 143,315 144,311 145,311 "/>
     <polygon class="fil21" points="147,320 146,319 148,312 149,312 "/>
     <polygon class="fil21" points="152,318 151,318 152,313 153,314 "/>
    </g>
    <g>
     <polygon class="fil21" points="155,322 154,322 156,314 158,315 "/>
     <polygon class="fil21" points="160,321 159,320 160,316 162,316 "/>
     <polygon class="fil21" points="163,324 162,324 164,317 165,317 "/>
     <polygon class="fil21" points="168,323 167,323 168,318 169,318 "/>
     <polygon class="fil21" points="171,327 170,326 172,319 173,319 "/>
     <polygon class="fil21" points="176,325 175,325 176,320 177,321 "/>
    </g>
    <g>
     <polygon class="fil21" points="179,329 178,329 181,322 182,322 "/>
     <polygon class="fil21" points="184,328 183,328 185,323 186,323 "/>
     <polygon class="fil21" points="187,332 186,331 188,324 190,324 "/>
     <polygon class="fil21" points="192,330 191,330 192,325 194,326 "/>
     <polygon class="fil21" points="195,334 194,334 196,327 197,327 "/>
     <polygon class="fil21" points="200,333 199,332 200,328 201,328 "/>
    </g>
   </g>
   <g>
    <path class="fil0" d="M225 233l1 0 0 -1 -4 -5 -1 1 -85 -110 0 0 0 -1 -1 0 0 0 -23 -10 0 0 0 -1 -1 0 0 0 -15 -6 3 16 3 27 0 0 0 1 0 0 0 0 86 110 0 0 -1 1 4 5 2 -1c7,7 19,8 27,2 9,-7 11,-19 5,-28z"/>
    <g>
     <g>
      <polygon class="fil22" points="109,110 95,121 92,104 "/>
      <polygon class="fil23" points="132,121 98,148 95,120 108,110 "/>
      <polygon class="fil24" points="219,235 187,260 186,260 98,147 132,121 "/>
      <polygon class="fil10" points="197,251 196,252 108,140 109,140 "/>
      <polygon class="fil10" points="212,240 211,241 123,129 124,128 "/>
     </g>
     <polygon class="fil23" points="223,236 222,236 188,264 183,258 184,258 219,231 "/>
     <path class="fil10" d="M189 262c7,8 19,9 28,2 8,-6 10,-18 4,-27l-32 25z"/>
    </g>
   </g>
   <g>
    <path class="fil0" d="M204 441c-4,-5 -12,-6 -17,-2l-97 75c-22,7 -36,24 -41,32 0,0 1,1 1,1 4,-3 12,-6 24,-2 18,5 31,-12 31,-12l97 -75c5,-4 6,-12 2,-17z"/>
    <g>
     <path class="fil8" d="M201 437c4,6 3,13 -2,17l-97 76 -15 -20 97 -75c5,-4 13,-3 17,2z"/>
     <polygon class="fil25" points="129,478 87,510 102,530 144,497 "/>
     <path class="fil10" d="M102 530c0,0 -13,16 -31,11 -12,-3 -20,0 -23,2 -1,1 -2,0 -1,-1 5,-7 18,-25 40,-32l15 20z"/>
    </g>
   </g>
  </g>
 </g>
</svg>
