<?xml version="1.0" encoding="UTF-8"?>
<!DOCTYPE svg PUBLIC "-//W3C//DTD SVG 1.0//EN" "http://www.w3.org/TR/2001/REC-SVG-20010904/DTD/svg10.dtd">
<!-- Creator: CorelDRAW X8 -->
<svg xmlns="http://www.w3.org/2000/svg" xml:space="preserve" width="800px" height="600px" version="1.0" style="shape-rendering:geometricPrecision; text-rendering:geometricPrecision; image-rendering:optimizeQuality; fill-rule:evenodd; clip-rule:evenodd"
viewBox="0 0 800 600"
 xmlns:xlink="http://www.w3.org/1999/xlink">
 <defs>
  <style type="text/css">
   <![CDATA[
    .str3 {stroke:#8B8B8C;stroke-width:5.90552}
    .str2 {stroke:#332C2B;stroke-width:2.36221}
    .str1 {stroke:#BBCFEC;stroke-width:1.1811}
    .str0 {stroke:#8B8B8C;stroke-width:5.90552;stroke-dasharray:11.811047 17.716570}
    .fil0 {fill:none}
    .fil3 {fill:#FEFEFE}
    .fil2 {fill:#212042}
    .fil4 {fill:#272F60}
    .fil5 {fill:#27447E}
    .fil1 {fill:#BBCFEC}
    .fil6 {fill:#CBDBF6}
   ]]>
  </style>
    <clipPath id="id0">
     <path d="M-148623 170l290 0 1307478 -3 -291 0 -1307477 3z"/>
    </clipPath>
    <clipPath id="id1">
     <path d="M1178139 480l428 0 -1331601 2 -428 0 1331601 -2z"/>
    </clipPath>
 </defs>
 <g id="Layer_x0020_1">
  <metadata id="CorelCorpID_0Corel-Layer"/>
  <circle class="fil0 str0" cx="595" cy="366" r="176"/>
  <circle class="fil0 str0" cx="149" cy="301" r="94"/>
  <path class="fil1 str1" d="M556 314l129 65 -39 78 -129 -65 39 -78zm88 139l-25 -61 61 -12 1 1 -37 72 0 0zm-86 -134l25 54 -61 17 36 -71zm119 59l-82 15 -33 -73 115 58zm-61 14l-23 4 -9 -21 -60 17 117 59 -25 -59z"/>
  <path class="fil1 str1" d="M93 520l124 -74 44 75 -124 74 -44 -75zm164 0l-65 -11 23 -58 1 -1 41 70 0 0zm-159 1l59 9 -18 60 -41 -69zm114 -68l-32 77 -79 -11 111 -66zm-21 58l-9 22 -23 -3 -17 59 112 -67 -63 -11z"/>
  <path class="fil2" d="M225 221l175 -149 7 1 173 148c4,4 9,5 9,11l0 55c0,6 -4,11 -9,11l-355 0c-5,0 -9,-5 -9,-11l0 -55c0,-6 5,-7 9,-11z"/>
  <g id="_2296730436688">
   <g style="clip-path:url(#id0)">
    <image x="-148623" y="167" width="1.30777e+06" height="2.28189" xlink:href="Untitled-1_Images\Untitled-1_ImgID1.png"/>
   </g>
  </g>
  <g id="_2296730436304">
   <polygon class="fil3 str2" points="285,171 470,171 520,224 520,344 285,344 "/>
   <polygon class="fil3 str2" points="470,171 520,224 470,224 "/>
  </g>
  <path class="fil4" d="M216 231c84,-23 115,64 165,97l-13 143 -152 0 0 -240z"/>
  <path class="fil4" d="M589 231c-84,-23 -115,64 -165,97l14 143 151 0 0 -240z"/>
  <g id="_2296730434352">
   <g style="clip-path:url(#id1)">
    <image x="-153462" y="480" width="1.33203e+06" height="2.32441" xlink:href="Untitled-1_Images\Untitled-1_ImgID2.png"/>
   </g>
  </g>
  <path class="fil5" d="M224 421l176 -118 7 0 174 118c4,2 9,4 9,8l0 44c0,5 -4,9 -9,9l-357 0c-5,0 -9,-4 -9,-9l0 -44c0,-4 5,-6 9,-8z"/>
  <path class="fil6" d="M401 266l-43 0c0,-22 19,-40 43,-40 24,0 44,18 44,40l-44 0z"/>
  <circle class="fil6" cx="401" cy="208" r="16"/>
  <path class="fil1 str1" d="M135 63l142 -27 16 86 -142 27 -16 -86zm154 57l-57 -34 41 -46 1 0 15 80 0 0zm-150 -54l52 28 -37 50 -15 -78zm131 -25l-56 61 -71 -37 127 -24zm-40 47l-16 18 -20 -11 -37 50 128 -24 -55 -33z"/>
  <circle class="fil0 str0" cx="103" cy="215" r="74"/>
  <circle class="fil0 str0" cx="683" cy="187" r="61"/>
  <polygon class="fil0 str3" points="561,5 566,19 580,19 568,28 573,42 561,33 549,42 554,28 542,19 557,19 "/>
  <polygon class="fil0 str3" points="714,329 717,336 725,336 719,340 721,346 714,342 708,346 710,340 703,336 712,336 "/>
  <polygon class="fil0 str3" points="440,531 444,545 459,545 447,554 452,568 440,559 428,568 432,554 420,545 435,545 "/>
  <polygon class="fil0 str3" points="95,91 99,103 112,103 102,111 105,123 95,116 85,123 89,111 79,103 91,103 "/>
  <ellipse class="fil0 str3" cx="183" cy="14" rx="7" ry="9"/>
  <ellipse class="fil0 str3" cx="102" cy="442" rx="7" ry="9"/>
  <ellipse class="fil0 str3" cx="710" cy="442" rx="7" ry="9"/>
  <ellipse class="fil0 str3" cx="548" cy="118" rx="7" ry="9"/>
  <polygon class="fil0 str3" points="160,329 164,341 177,341 166,348 170,361 160,353 150,361 154,348 144,341 156,341 "/>
 </g>
</svg>
