<?xml version="1.0" encoding="UTF-8"?>
<!DOCTYPE svg PUBLIC "-//W3C//DTD SVG 1.1//EN" "http://www.w3.org/Graphics/SVG/1.1/DTD/svg11.dtd">
<!-- Creator: CorelDRAW X8 -->
<svg xmlns="http://www.w3.org/2000/svg" xml:space="preserve" width="42.3332mm" height="42.3332mm" version="1.1" style="shape-rendering:geometricPrecision; text-rendering:geometricPrecision; image-rendering:optimizeQuality; fill-rule:evenodd; clip-rule:evenodd"
viewBox="0 0 4233 4233"
 xmlns:xlink="http://www.w3.org/1999/xlink">
 <defs>
  <style type="text/css">
   <![CDATA[
    .fil2 {fill:#05A8F1}
    .fil1 {fill:#17CEC5}
    .fil0 {fill:#22E3AC}
    .fil3 {fill:url(#id0)}
   ]]>
  </style>
  <linearGradient id="id0" gradientUnits="userSpaceOnUse" x1="-0" y1="2116.66" x2="4233.32" y2="2116.66">
   <stop offset="0" style="stop-opacity:1; stop-color:#22E3AC"/>
   <stop offset="1" style="stop-opacity:1; stop-color:#05A8F1"/>
  </linearGradient>
 </defs>
 <g id="Layer_x0020_1">
  <metadata id="CorelCorpID_0Corel-Layer"/>
  <path class="fil0" d="M1272 567c16,30 206,220 242,251 30,27 37,17 87,5 385,-91 837,-66 1203,44 551,164 907,475 1179,786 25,-11 218,-192 243,-223 -9,-19 -97,-110 -117,-131 -618,-657 -1510,-968 -2424,-829 -152,23 -276,63 -413,97z"/>
  <path class="fil1" d="M3415 2316c56,-29 169,-175 233,-221 -26,-53 -230,-237 -290,-285 -103,-82 -216,-157 -351,-228 -255,-135 -602,-231 -941,-217 24,37 102,106 139,143 50,50 94,94 144,144 85,85 49,63 190,100 271,72 448,191 651,350 53,41 176,176 225,214z"/>
  <path class="fil2" d="M2036 3281c-347,107 -179,599 146,505 333,-96 187,-608 -146,-505z"/>
  <path class="fil3" d="M0 232l0 6 332 328 302 303c-17,21 -249,174 -333,259 -30,32 -49,43 -78,71 -27,26 -47,48 -74,75 -22,23 -132,135 -142,156l119 114c49,43 91,94 125,109 145,-167 392,-413 625,-538l423 413c7,22 0,19 -28,32 -126,59 -247,136 -354,217 -73,56 -300,255 -332,318 64,46 178,193 234,221 43,-34 162,-161 243,-229 31,-26 56,-45 87,-69 87,-67 287,-187 414,-222l333 327c37,62 123,105 156,170 -408,37 -667,254 -843,452l228 233c56,-41 113,-113 176,-166 216,-185 502,-241 780,-128 148,60 262,204 372,314 54,54 310,318 345,341l885 894 7 0c67,-73 158,-165 231,-232l0 -6 -671 -661 -1215 -1215 -596 -596 -962 -968 -551 -555 -6 0c-67,73 -159,165 -232,232z"/>
 </g>
</svg>
