<?xml version="1.0" encoding="UTF-8"?>
<!DOCTYPE svg PUBLIC "-//W3C//DTD SVG 1.0//EN" "http://www.w3.org/TR/2001/REC-SVG-20010904/DTD/svg10.dtd">
<!-- Creator: CorelDRAW X8 -->
<svg xmlns="http://www.w3.org/2000/svg" xml:space="preserve" width="320px" height="180px" version="1.0" style="shape-rendering:geometricPrecision; text-rendering:geometricPrecision; image-rendering:optimizeQuality; fill-rule:evenodd; clip-rule:evenodd"
viewBox="0 0 320 180"
 xmlns:xlink="http://www.w3.org/1999/xlink">
 <defs>
  <style type="text/css">
   <![CDATA[
    .fil4 {fill:#5F5D5D}
    .fil3 {fill:#5F5D5D}
    .fil0 {fill:#F0EDE2}
    .fil1 {fill:#588281;fill-rule:nonzero}
    .fil2 {fill:#E6BA59;fill-rule:nonzero}
    .fnt0 {font-weight:bold;font-size:24.9993px;font-family:'Arial'}
   ]]>
  </style>
 </defs>
 <g id="Layer_x0020_1">
  <metadata id="CorelCorpID_0Corel-Layer"/>
  <rect class="fil0" width="320" height="180"/>
  <g id="_2320065306048">
   <path class="fil1" d="M222 101l-19 -34c-2,-3 -6,-3 -8,0l-15 17 -7 8 0 0 0 0 -2 -2 -11 -12c-1,-2 -4,-2 -6,0l-30 24c-1,2 0,4 3,4l46 0 45 0c4,0 6,-3 4,-5z"/>
   <path class="fil2" d="M142 61c0,4 3,7 7,7 4,0 8,-3 8,-7 0,-4 -4,-7 -8,-7 -4,0 -7,3 -7,7z"/>
  </g>
  <path class="fil3" d="M118 44l104 0 -2 -11c0,-2 -3,-4 -6,-4l-103 15c-2,1 -4,3 -4,6l6 37 0 -37c0,-3 2,-6 5,-6zm107 0l3 0c3,0 5,3 5,6l0 60c0,2 -2,5 -5,5l-110 0c-3,0 -5,-3 -5,-5l0 -1c0,0 -1,-1 -1,-1l-8 -59c-1,-3 1,-6 4,-7l109 -16c3,0 6,2 6,5l2 13zm-104 3l104 0c3,0 5,2 5,5l0 55c0,3 -2,5 -5,5l-104 0c-3,0 -5,-2 -5,-5l0 -55c0,-3 2,-5 5,-5z"/>
  <text x="38" y="145"  class="fil4 fnt0">SINAU MATEMATIKA</text>
 </g>
</svg>
