<svg viewBox="0 0 720 380" xmlns="http://www.w3.org/2000/svg"><path fill="#f2f2f2" d="M0-.002h720v380H0z"/><path d="M393.593 160.61h-67.181a4.195 4.195 0 00-4.199 4.199v50.386a4.198 4.198 0 004.199 4.199h67.181a4.198 4.198 0 004.199-4.2V164.81a4.198 4.198 0 00-4.199-4.199zm-19.944 14.696a5.25 5.25 0 010 10.497c-2.897 0-5.249-2.351-5.249-5.248s2.352-5.249 5.249-5.249zm-38.839 31.491l13.915-31.991 15.825 25.621 13.566-6.74 7.08 13.11h-50.387z" fill="#ccc"/><text x="330.266" y="265.41" fill="#ccc" font-family="sans-serif" font-size="21.695" letter-spacing="0" stroke-width=".542" word-spacing="0" style="line-height:1.25" transform="translate(-12.857 -11.04)"><tspan x="330.266" y="265.41" font-family="Lato">Loading..</tspan></text></svg>