<?xml version="1.0" encoding="UTF-8"?>
<!DOCTYPE svg PUBLIC "-//W3C//DTD SVG 1.0//EN" "http://www.w3.org/TR/2001/REC-SVG-20010904/DTD/svg10.dtd">
<!-- Creator: CorelDRAW X8 -->
<svg xmlns="http://www.w3.org/2000/svg" xml:space="preserve" width="510px" height="560px" version="1.0" style="shape-rendering:geometricPrecision; text-rendering:geometricPrecision; image-rendering:optimizeQuality; fill-rule:evenodd; clip-rule:evenodd"
viewBox="0 0 510 560"
 xmlns:xlink="http://www.w3.org/1999/xlink">
 <defs>
  <style type="text/css">
   <![CDATA[
    .fil1 {fill:#FEFEFE}
    .fil0 {fill:#B6B6B7}
    .fil4 {fill:#C9CACA;fill-rule:nonzero}
    .fil2 {fill:#A1A1A1;fill-rule:nonzero}
    .fil6 {fill:#00A2E9;fill-rule:nonzero}
    .fil9 {fill:#013D5E;fill-rule:nonzero}
    .fil8 {fill:#013D5E;fill-rule:nonzero}
    .fil7 {fill:#E4EFF4;fill-rule:nonzero}
    .fil10 {fill:#F2A180;fill-rule:nonzero}
    .fil11 {fill:#FFCCAF;fill-rule:nonzero}
    .fil5 {fill:#C9CACA;fill-rule:nonzero;fill-opacity:0.349020}
    .fil3 {fill:#A1A1A1;fill-rule:nonzero;fill-opacity:0.549020}
   ]]>
  </style>
 </defs>
 <g id="Layer_x0020_1">
  <metadata id="CorelCorpID_0Corel-Layer"/>
  <g id="_2460058781312">
   <g>
    <rect class="fil0" transform="matrix(0.44163 -0.128839 0.124044 0.425196 0.958958 95.0996)" width="721" height="788" rx="37" ry="37"/>
    <rect class="fil1" transform="matrix(0.416585 -0.121533 0.11794 0.404271 11.0263 101.513)" width="721" height="788" rx="37" ry="37"/>
   </g>
   <g>
    <path class="fil2" d="M267 70l-148 45c-2,1 -5,0 -6,-3 0,-2 1,-4 3,-5l149 -45c2,-1 4,0 5,3 1,2 -1,4 -3,5z"/>
    <path class="fil2" d="M272 85l-149 45c-2,1 -4,-1 -5,-3 -1,-2 1,-5 3,-5l148 -46c2,0 5,1 6,3 0,2 -1,5 -3,6z"/>
    <path class="fil2" d="M263 55l-149 46c-2,0 -4,-1 -5,-3 -1,-2 1,-5 3,-6l148 -45c2,-1 5,1 6,3 0,2 -1,5 -3,5z"/>
    <path class="fil2" d="M226 114l-98 30c-2,1 -5,0 -6,-2 0,-3 1,-5 3,-6l98 -30c3,-1 5,1 6,3 1,2 -1,5 -3,5z"/>
    <path class="fil3" d="M104 149l-36 11c-3,1 -6,-1 -7,-4l-11 -36c-1,-3 1,-6 4,-7l36 -11c3,-1 6,1 7,4l11 36c1,3 -1,6 -4,7zm-36 -27l7 23c0,2 3,2 4,1l12 -17c1,-1 1,-3 -1,-4l-19 -6c-2,-1 -4,1 -3,3z"/>
   </g>
   <g>
    <path class="fil2" d="M287 137l-149 45c-2,1 -4,0 -5,-2 -1,-3 1,-5 3,-6l148 -45c2,-1 5,0 6,3 0,2 -1,4 -3,5z"/>
    <path class="fil2" d="M291 152l-148 45c-2,1 -5,-1 -6,-3 0,-2 1,-5 3,-5l149 -46c2,0 4,1 5,3 1,3 -1,5 -3,6z"/>
    <path class="fil2" d="M282 123l-148 45c-2,1 -5,-1 -5,-3 -1,-2 0,-5 2,-5l149 -46c2,0 4,1 5,3 1,2 0,5 -3,6z"/>
    <path class="fil2" d="M245 182l-98 30c-2,0 -4,-1 -5,-3 -1,-3 0,-5 3,-6l98 -30c2,0 5,1 5,3 1,2 0,5 -3,6z"/>
    <path class="fil3" d="M124 216l-36 11c-3,1 -6,-1 -7,-4l-11 -36c-1,-3 1,-6 3,-7l36 -11c3,-1 6,1 7,4l11 36c1,3 0,6 -3,7zm-37 -27l7 23c1,2 3,2 5,1l12 -17c1,-1 0,-3 -1,-3l-20 -7c-2,-1 -3,1 -3,3z"/>
   </g>
   <rect class="fil0" x="103" y="82" width="332" height="349" rx="17" ry="16"/>
   <rect class="fil1" x="111" y="91" width="313" height="332" rx="16" ry="15"/>
   <g>
    <path class="fil4" d="M370 364l-147 0c-2,0 -4,-2 -4,-4 0,-3 2,-5 4,-5l147 0c2,0 4,2 4,5 0,2 -2,4 -4,4z"/>
    <path class="fil4" d="M370 380l-147 0c-2,0 -4,-2 -4,-5 0,-2 2,-4 4,-4l147 0c2,0 4,2 4,4 0,3 -2,5 -4,5z"/>
    <path class="fil4" d="M370 348l-147 0c-2,0 -4,-2 -4,-4 0,-3 2,-5 4,-5l147 0c2,0 4,2 4,5 0,2 -2,4 -4,4z"/>
    <path class="fil4" d="M256 396l-33 0c-2,0 -4,-2 -4,-5 0,-2 2,-4 4,-4l33 0c2,0 4,2 4,4 0,3 -2,5 -4,5z"/>
    <path class="fil5" d="M195 396l-43 0c-4,0 -7,-3 -7,-7l0 -43c0,-4 3,-7 7,-7l43 0c4,0 6,3 6,7l0 43c0,4 -2,7 -6,7zm-3 -41c0,2 -1,3 -3,3 -2,0 -3,-1 -3,-3 0,-2 1,-3 3,-3 2,0 3,1 3,3zm-8 6l-4 7 7 13 7 0 -10 -20zm-17 -10l-15 30 31 0 -16 -30z"/>
    <path class="fil4" d="M353 380l-130 0c-3,0 -4,-2 -4,-5 0,-2 1,-4 4,-4l130 0c2,0 4,2 4,4 0,3 -2,5 -4,5z"/>
   </g>
   <g>
    <path class="fil4" d="M370 289l-147 0c-2,0 -4,-2 -4,-5 0,-2 2,-4 4,-4l147 0c2,0 4,2 4,4 0,3 -2,5 -4,5z"/>
    <path class="fil4" d="M370 304l-147 0c-2,0 -4,-2 -4,-4 0,-3 2,-5 4,-5l147 0c2,0 4,2 4,5 0,2 -2,4 -4,4z"/>
    <path class="fil4" d="M370 273l-147 0c-2,0 -4,-2 -4,-4 0,-3 2,-5 4,-5l147 0c2,0 4,2 4,5 0,2 -2,4 -4,4z"/>
    <path class="fil4" d="M256 320l-33 0c-2,0 -4,-2 -4,-4 0,-3 2,-5 4,-5l33 0c2,0 4,2 4,5 0,2 -2,4 -4,4z"/>
    <path class="fil5" d="M195 320l-43 0c-4,0 -7,-3 -7,-6l0 -44c0,-3 3,-6 7,-6l43 0c4,0 6,3 6,6l0 44c0,3 -2,6 -6,6zm-3 -41c0,2 -1,4 -3,4 -2,0 -3,-2 -3,-4 0,-1 1,-3 3,-3 2,0 3,2 3,3zm-8 6l-4 7 7 13 7 0 -10 -20zm-17 -10l-15 30 31 0 -16 -30z"/>
    <path class="fil4" d="M353 304l-130 0c-3,0 -4,-2 -4,-4 0,-3 1,-5 4,-5l130 0c2,0 4,2 4,5 0,2 -2,4 -4,4z"/>
   </g>
   <path class="fil6" d="M368 217l-146 0c-3,0 -5,-2 -5,-5 0,-2 2,-4 5,-4l146 0c3,0 5,2 5,4 0,3 -2,5 -5,5z"/>
   <path class="fil4" d="M368 233l-146 0c-3,0 -5,-2 -5,-5 0,-2 2,-4 5,-4l146 0c3,0 5,2 5,4 0,3 -2,5 -5,5z"/>
   <path class="fil6" d="M368 201l-146 0c-3,0 -5,-2 -5,-4 0,-3 2,-5 5,-5l146 0c3,0 5,2 5,5 0,2 -2,4 -5,4z"/>
   <path class="fil6" d="M254 248l-32 0c-3,0 -5,-2 -5,-4 0,-3 2,-5 5,-5l32 0c3,0 5,2 5,5 0,2 -2,4 -5,4z"/>
   <path class="fil5" d="M194 248l-44 0c-3,0 -6,-2 -6,-6l0 -43c0,-4 3,-7 6,-7l44 0c3,0 6,3 6,7l0 43c0,4 -3,6 -6,6zm-4 -40c0,1 -1,3 -3,3 -2,0 -3,-2 -3,-3 0,-2 1,-4 3,-4 2,0 3,2 3,4zm-8 5l-4 7 7 13 8 0 -11 -20zm-16 -10l-16 30 31 0 -15 -30z"/>
   <path class="fil6" d="M356 233l-135 0c-2,0 -4,-2 -4,-5 0,-2 2,-4 4,-4l135 0c3,0 4,2 4,4 0,3 -1,5 -4,5z"/>
   <path class="fil7" d="M505 546c0,4 -31,8 -70,8 -38,0 -69,-4 -69,-8 0,-4 31,-7 69,-7 39,0 70,3 70,7z"/>
   <path class="fil8" d="M400 536c0,1 -3,4 -7,6 -4,1 -12,2 -8,4 5,1 10,0 13,0 3,-1 5,-1 9,-1 4,0 4,0 3,-5 -1,-6 -8,-8 -10,-4z"/>
   <path class="fil8" d="M476 534c0,1 2,5 -1,8 -4,3 -11,6 -6,6 5,0 10,-1 12,-2 3,-2 1,-4 4,-5 4,-1 3,-4 1,-6 -3,-6 -9,-6 -10,-1z"/>
   <g>
    <path class="fil4" d="M369 145l-147 0c-2,0 -4,-2 -4,-5 0,-2 2,-4 4,-4l147 0c2,0 4,2 4,4 0,3 -2,5 -4,5z"/>
    <path class="fil4" d="M369 160l-147 0c-2,0 -4,-2 -4,-4 0,-3 2,-5 4,-5l147 0c2,0 4,2 4,5 0,2 -2,4 -4,4z"/>
    <path class="fil4" d="M369 129l-147 0c-2,0 -4,-2 -4,-5 0,-2 2,-4 4,-4l147 0c2,0 4,2 4,4 0,3 -2,5 -4,5z"/>
    <path class="fil6" d="M255 176l-33 0c-2,0 -4,-2 -4,-4 0,-3 2,-5 4,-5l33 0c2,0 4,2 4,5 0,2 -2,4 -4,4z"/>
    <path class="fil5" d="M194 176l-43 0c-4,0 -7,-3 -7,-6l0 -44c0,-3 3,-6 7,-6l43 0c4,0 6,3 6,6l0 44c0,3 -2,6 -6,6zm-3 -41c0,2 -1,4 -3,4 -2,0 -3,-2 -3,-4 0,-1 1,-3 3,-3 2,0 3,2 3,3zm-8 6l-4 7 7 13 7 0 -10 -20zm-17 -10l-15 30 31 0 -16 -30z"/>
    <path class="fil6" d="M352 160l-130 0c-3,0 -4,-2 -4,-4 0,-3 1,-5 4,-5l130 0c2,0 4,2 4,5 0,2 -2,4 -4,4z"/>
   </g>
   <g>
    <path class="fil9" d="M460 401c0,0 10,-29 -18,-54 0,0 -15,6 -27,7 -10,1 -15,0 -15,0 0,0 -1,26 -1,40l61 7z"/>
   </g>
   <g>
    <path class="fil9" d="M403 370c-2,1 -3,8 -3,12 -1,5 -2,53 -3,61 0,2 0,3 0,4 0,1 0,2 0,3 1,14 4,58 3,86 0,0 1,1 2,2 2,1 6,0 8,0 2,-22 16,-66 7,-87 0,-1 -1,-2 0,-3 4,-14 12,-40 14,-50 3,-18 -17,-32 -28,-28z"/>
   </g>
   <g>
    <path class="fil9" d="M464 454c-1,-1 -1,-2 -1,-3 -1,-14 -1,-47 -3,-58 -4,-17 -24,-24 -32,-16 -2,2 -3,11 -1,15 1,5 13,53 15,62 1,1 1,2 1,3 1,1 1,1 1,2 5,14 24,50 32,76 0,0 1,2 2,2 2,0 6,-1 8,-3 -4,-21 -5,-61 -22,-80z"/>
   </g>
   <path class="fil6" d="M384 279l0 1 0 0 0 0 0 0 0 0 -1 0 0 1 0 0 0 0 0 0 0 1 0 0 0 0 0 0 0 1 0 0 0 0 -1 0 0 0 0 0 0 1 0 0 0 0 0 0 0 0 0 1 0 0 0 0 -1 1 0 0 0 0 0 0 0 1 0 0 0 0 0 1 0 0 0 0 0 0 -1 1 0 0 0 0 0 0 0 1 0 0 0 0 0 0 0 1 0 0 0 1 0 0 -1 0 0 0 0 1 0 0 0 0 0 1 0 0 0 0 0 0 0 1 0 0 -1 0 0 0 0 1 0 0 0 0 0 1 0 0 0 0 0 0 0 1 0 0 0 0 0 1 -1 0 0 0 0 1 0 0 0 0 0 0 0 0 0 1 0 0 0 1 0 0 0 0 0 1 0 0 -1 0 0 0 0 1 0 0 0 0 0 0 0 1 0 0 0 0 0 1 -1 -1 0 0 0 0 0 0 -1 -1 0 0 0 0 -1 -1 0 0 0 0 0 0 -1 -1 0 0 0 0 -1 -1 0 0 0 0 -1 -1 0 0 0 0 0 0 -1 -1 0 0 0 0 -1 -1 0 0 0 0 -1 -1 0 0 0 0 -1 -1 0 0 -1 -1 0 0 0 0 -1 0 0 -1 0 0 -1 0 0 0 0 -1 -1 0 0 0 0 0 -1 -1 0 0 0 0 0 0 -1 -1 0 0 0 0 -1 -1 0 0 0 0 0 0 -1 -1 0 0 0 0 -1 0 0 -1 0 0 0 0 0 0 -1 0 0 -1 0 0 -1 0 0 0 0 0 0 -1 0 0 -1 0 0 0 0 0 0 -1 0 0 -1 0 0 0 0 0 0 0 0 0 -1 -1 0 0 0 0 0 0 0 0 0 0 -1 0 0 -1 0 0 0 0 0 0 0 0 0 0 0 0 0 0 -1 0 0 0 0 0 0 0 0 0 0 0 0 0 0 0 0 0 0 -1 0 0c0,0 -9,7 -8,9 2,1 29,40 36,41l0 0 0 0 0 0 0 0 0 0 0 0 1 0 0 0 0 0 0 0 0 0 0 0 0 0 0 0 0 0 0 0 0 0 0 0 0 0 0 0 0 0 0 0 1 0 0 0 0 0 0 0 0 0 0 -1 0 0 0 0 0 0 0 0 0 0c0,0 0,0 0,0l0 0 0 0 1 0 0 0 0 0 0 0 0 0 0 0 0 0 0 0 0 0 0 0 0 0 0 0 0 0 0 0 1 0 0 0 0 -1 0 0 0 0 0 0 0 0 0 0 0 0 0 0 0 0 0 0 0 0 0 0 0 0 0 0 0 0 1 0 0 0 0 0 0 0 0 0 0 -1 0 0 0 0 0 0 0 0 0 0 0 0 0 0 0 0 0 0 0 0 0 0 1 0 0 0 0 0 0 0 0 -1 0 0 0 0 0 0 0 0 0 0 0 0 0 0 0 0 0 0 0 0 0 0 0 0 0 0 0 -1 1 0 0 0 0 0 0 0 0 0 0 0 0 0 0 0 0 0 0 0 0 0 0 -1 0 0 0 0 0 0 0 0 0 0 0 0 0 0 0 0 1 -1 0 0 0 0 0 0 0 0 0 0 0 -1 1 0 0 0 0 0 0 0 0 -1 0 0 0 0 0 0 1 0 0 0 0 -1 0 0 0 0 0 0 0 0 0 -1 0 0 1 0 0 0 0 0 0 0 0 -1 0 0 0 0 0 0 0 0 1 -1 0 0 0 0 0 0 0 0 0 -1 0 0 0 0 1 0 0 0 0 0 0 -1 0 0 0 0 0 0 0 0 0 -1 1 0 0 0 0 0 0 0 0 -1 0 0 0 0 0 0 0 0 1 -1 0 0 0 0 0 0 0 0 0 -1 0 0 0 0 0 0 1 0 0 0 0 -1 0 0 0 0 0 0 0 0 0 -1 0 0 1 0 0 0 0 -1 0 0 0 0 0 0 0 0 0 -1 1 0 0 0 0 0 0 0 0 -1 0 0 0 0 0 0 1 -1 0 0 0 0 0 0 0 -1 0 0 0 0 0 0 0 0 1 -1 0 0 0 0 0 0 0 0c1,3 1,6 2,8 2,5 1,30 0,34 0,4 -2,4 -1,7 0,3 14,5 21,5 1,0 2,0 2,0l1 2c0,0 3,-1 8,-2 8,-1 18,-2 20,-5 1,0 0,-2 -1,-4 9,-4 16,-8 18,-12 3,-10 3,-52 -9,-67 -2,-3 -5,-5 -7,-6 -8,-4 -27,-5 -34,-6 -12,0 -20,5 -25,8l0 0 0 0 0 0 0 0 0 0 0 0 0 0 0 0 0 0 0 0 0 0 0 0 0 0 0 0 0 0 0 0 0 0 0 0 0 0 0 0 0 0 0 0 0 0 0 0 0 0 0 0 0 0 0 0 0 0 0 0 0 0 0 0 0 0 0 0 0 0 0 0 0 1 0 0 0 0 0 0 0 0 0 0 0 0 0 0 0 0 0 0 0 0 0 0 0 0 0 0 0 0 0 0 0 0 0 0 0 0 0 0 0 0 0 0 0 0 0 0 0 0 0 0 0 0 0 0 0 0 0 0 0 0 -1 0 0 0 0 0 0 0 0 0c0,0 0,0 0,1l0 0 0 0 0 0 0 0 0 0 0 0 0 0 -1 0 0 0 0 0 0 0 0 0 0 0 0 0 0 0 0 0 0 0 0 0 0 1 0 0 0 0 0 0 0 0 0 0 -1 0 0 0 0 0 0 0 0 0 0 0 0 1 0 0 0 0 0 0 0 0 0 0 0 0 0 0 -1 0 0 0 0 0 0 0 0 0 0 1 0 0 0 0 0 0 0 0 0 0 0 0 -1 0 0 1 0 0c0,0 0,0 0,0l0 0 0 0 0 0 0 0 0 1 0 0 -1 0 0 0 0 0 0 0 0 0 0 0 0 0 0 0 0 1 0 0 0 0 0 0 -1 0 0 0 0 0 0 0 0 1 0 0 0 0c0,0 0,0 -1,1l0 0 0 0c0,0 0,0 0,0l0 1 0 0 0 0 0 0 0 0 0 0 0 0 -1 1 0 0 0 0 0 0c0,0 0,0 0,0zm67 52c1,-3 2,-7 2,-10 1,4 2,8 2,8l-4 2z"/>
   <path class="fil10" d="M336 274c0,0 -1,2 -1,5l2 -3 -1 -2z"/>
   <g>
    <path class="fil8" d="M415 210c-2,1 -3,4 -4,6 -1,3 -2,6 -2,9 0,2 -1,4 0,5 1,1 1,2 2,3 0,0 1,1 1,1 0,1 1,1 2,1 0,-1 1,-2 1,-2 1,-6 3,-11 6,-16l-6 -7z"/>
   </g>
   <g>
    <path class="fil11" d="M413 227c0,-2 -2,-3 -4,-1 -1,1 -1,4 -1,6 -1,2 1,3 3,3l2 -8z"/>
   </g>
   <path class="fil11" d="M415 249c0,0 0,10 -1,10 0,1 -2,2 -2,2 0,0 1,9 3,8 3,-1 17,-8 17,-8 0,0 -2,-1 -2,-2 0,-1 2,-17 2,-17l-17 7z"/>
   <path class="fil11" d="M425 211c-2,1 -8,0 -9,2 -2,2 -3,8 -4,10 -1,3 -2,6 -3,9 -1,4 -3,12 1,16 2,1 2,1 4,1 2,1 3,1 5,1 3,1 7,1 10,1 4,-2 6,-7 7,-11l6 -21 -17 -8z"/>
   <path class="fil10" d="M413 356c-4,0 -6,2 -8,5 -1,0 -1,0 -1,0 0,1 1,1 1,1 2,0 2,-1 4,-2 2,0 3,-1 4,-2l0 -2z"/>
   <path class="fil8" d="M435 419c-3,0 -5,-2 -7,-4l-97 -147c-2,-3 -1,-8 2,-11 4,-2 9,-1 12,3l96 146c3,4 2,9 -2,11 -1,1 -3,2 -4,2z"/>
   <path class="fil8" d="M286 287c-29,0 -57,-14 -74,-40 -13,-20 -17,-43 -13,-66 5,-23 19,-43 38,-56 41,-27 96,-16 123,25 13,19 17,43 13,66 -5,23 -19,43 -38,56 -15,10 -32,15 -49,15zm0 -163l0 0c-14,0 -28,4 -41,12 -17,11 -28,28 -32,47 -4,20 0,40 11,56 23,35 69,44 103,21 17,-11 28,-27 32,-47 4,-19 0,-39 -11,-56 -14,-21 -38,-33 -62,-33z"/>
   <path class="fil11" d="M426 352c-4,1 -13,4 -14,4 -1,1 -5,4 -6,5 -3,3 -2,5 -3,9 0,1 0,1 0,1 0,1 1,1 1,1 1,0 2,0 2,-1 0,1 1,1 2,0 1,0 1,0 2,-1 1,-1 2,-2 4,-2 1,-1 2,-1 3,-2 2,-1 4,-1 5,-5 1,-1 2,-2 2,-2 2,-1 4,-3 6,-4l-4 -3z"/>
   <path class="fil10" d="M412 365c0,0 -1,1 -1,1 -1,1 -1,1 -2,2 0,0 -1,1 -1,1 0,0 0,1 -1,1 0,0 0,1 0,1 0,0 0,-1 0,-1 0,-1 1,-1 1,-1 0,-1 0,-1 1,-1 0,-1 0,-1 1,-1 0,-1 0,-1 1,-1 0,0 1,-1 1,-1z"/>
   <path class="fil10" d="M410 363c0,0 -1,0 -1,1 0,1 -1,1 -1,1 0,1 0,1 0,1 -1,0 -1,1 -1,1 0,0 0,1 -1,1 0,1 0,1 0,2 -1,0 -1,1 -1,1 0,0 0,-1 0,-1 0,-1 1,-1 1,-2 0,0 0,-1 1,-1 0,-1 0,-1 0,-1 0,0 0,-1 1,-1 0,0 0,-1 1,-1 0,0 0,-1 0,-1 1,0 1,0 1,0z"/>
   <path class="fil10" d="M408 361c0,0 0,0 -1,1 0,0 0,0 0,0 0,1 -1,1 -1,2 0,0 0,0 0,0l-1 1c0,1 -1,2 -1,3 0,1 0,1 0,1 0,0 0,0 0,-1 0,-1 0,-2 1,-3 0,-1 0,-1 1,-2 0,0 0,0 1,-1 0,0 1,-1 1,-1z"/>
   <path class="fil11" d="M339 282c0,0 2,-4 2,-5 1,-2 1,-3 2,-2 0,0 0,0 0,1 0,1 -1,4 -1,4l-3 2z"/>
   <g>
    <path class="fil8" d="M438 236c-1,0 -2,-1 -3,0 -1,1 -1,2 -2,2 0,0 -1,-1 -2,-1 0,-1 1,-2 1,-3 0,-2 1,-3 1,-5 1,-2 1,-4 1,-5 -1,-1 -1,-2 -2,-2 -2,-2 -5,-3 -8,-4 -3,-1 -6,-1 -9,-2 -1,0 -2,-1 -3,-1 -1,-2 -2,-4 -2,-6 0,-2 0,-4 1,-5 1,0 1,1 1,2 1,-1 1,-2 2,-3 1,5 21,3 25,5 3,2 6,3 6,8 0,0 0,0 1,1 2,2 4,5 4,10 0,6 -3,12 -6,17 -1,1 -2,2 -3,3 -1,1 -3,1 -4,1 -2,0 -5,0 -5,-2 0,-1 3,-3 3,-3l3 -7z"/>
   </g>
   <g>
    <path class="fil11" d="M433 242c0,0 0,1 0,2 1,0 2,0 3,0 2,-1 3,-3 4,-5 0,-3 -1,-5 -4,-4 -1,0 -2,2 -2,3l-1 4z"/>
   </g>
   <g>
    <path class="fil10" d="M415 249l6 2c0,0 -2,2 -6,2l0 -4z"/>
   </g>
   <path class="fil11" d="M342 290c0,0 -1,-2 -2,-3 -1,-1 -4,-3 -5,-4 -1,-1 0,-8 2,-9 2,0 4,5 5,7 1,2 1,4 1,4l1 3c0,0 -1,1 -2,2z"/>
   <path class="fil11" d="M336 276c0,0 1,-3 2,-4 0,-2 1,-3 1,-2 0,0 1,1 0,2 0,0 -1,3 -1,3l-2 1z"/>
   <path class="fil11" d="M337 278c0,0 2,-5 2,-7 1,-1 2,-2 2,-2 1,0 1,1 1,2 -1,1 -2,5 -2,5l-3 2z"/>
   <path class="fil11" d="M338 280c0,0 2,-5 2,-6 1,-1 2,-2 2,-2 0,0 0,1 0,2 0,1 -1,4 -1,4l-3 2z"/>
  </g>
 </g>
</svg>
